<svg width="20" height="20" viewBox="0 0 20 20" fill="none" xmlns="http://www.w3.org/2000/svg">
<g clip-path="url(#clip0_1325_67)">
<path d="M2.01667 5.40833C1.64167 5.14167 1.55 4.625 1.81667 4.25C2.48333 3.30833 3.3 2.49167 4.24167 1.825C4.61667 1.55833 5.14167 1.65 5.4 2.025C5.66667 2.4 5.575 2.925 5.2 3.18333C4.41667 3.74167 3.73333 4.41667 3.175 5.20833C3.01667 5.44167 2.75833 5.55833 2.49167 5.55833C2.325 5.55833 2.15833 5.50833 2.00833 5.40833H2.01667ZM3.18333 14.7917C2.91667 14.4167 2.4 14.325 2.025 14.5917C1.65 14.8583 1.55833 15.375 1.825 15.75C2.49167 16.6917 3.30833 17.5083 4.25 18.175C4.39167 18.275 4.56667 18.325 4.73333 18.325C4.99167 18.325 5.25 18.2 5.41667 17.975C5.68333 17.6 5.59167 17.075 5.21667 16.8167C4.425 16.2583 3.75 15.5833 3.19167 14.7917H3.18333ZM1.66667 10C1.66667 9.49167 1.70833 8.98333 1.8 8.49167C1.88333 8.04167 1.58333 7.60833 1.13333 7.525C0.683333 7.44167 0.25 7.74167 0.166667 8.19167C0.0583333 8.78333 0 9.39167 0 10C0 10.6083 0.0583333 11.2167 0.166667 11.8083C0.241667 12.2083 0.591667 12.4917 0.983333 12.4917C1.03333 12.4917 1.08333 12.4917 1.13333 12.475C1.58333 12.3917 1.88333 11.9583 1.8 11.5083C1.70833 11.0167 1.66667 10.5083 1.66667 10ZM16.8167 14.7917C16.2583 15.5833 15.5833 16.2583 14.7917 16.8167C14.4167 17.0833 14.325 17.6 14.5917 17.975C14.75 18.2083 15.0083 18.325 15.275 18.325C15.4417 18.325 15.6083 18.275 15.7583 18.175C16.7 17.5083 17.5167 16.6917 18.1833 15.75C18.45 15.375 18.3583 14.85 17.9833 14.5917C17.6083 14.325 17.0833 14.4167 16.825 14.7917H16.8167ZM11.5083 18.2C11.0167 18.2917 10.5083 18.3333 10 18.3333C9.49167 18.3333 8.98333 18.2917 8.49167 18.2C8.04167 18.1167 7.60833 18.4167 7.525 18.8667C7.44167 19.3167 7.74167 19.75 8.19167 19.8333C8.78333 19.9417 9.39167 20 10 20C10.6083 20 11.2167 19.9417 11.8083 19.8333C12.2583 19.75 12.5583 19.3167 12.475 18.8667C12.3917 18.4167 11.9583 18.1083 11.5083 18.2ZM11.8083 0.166667C11.2167 0.0583333 10.6083 0 10 0C9.39167 0 8.78333 0.0583333 8.19167 0.166667C7.74167 0.25 7.44167 0.683333 7.525 1.13333C7.6 1.53333 7.95 1.81667 8.34167 1.81667C8.39167 1.81667 9.49167 1.66667 10 1.66667C10.5083 1.66667 11.6083 1.81667 11.6583 1.81667C12.05 1.81667 12.4 1.53333 12.475 1.13333C12.5583 0.683333 12.2583 0.25 11.8083 0.166667ZM16.8167 5.20833C16.975 5.44167 17.2333 5.55833 17.5 5.55833C17.6667 5.55833 17.8333 5.50833 17.9833 5.40833C18.3583 5.14167 18.45 4.625 18.1833 4.25C17.5167 3.30833 16.7 2.49167 15.7583 1.825C15.3833 1.55833 14.8583 1.65 14.6 2.025C14.3333 2.4 14.425 2.925 14.8 3.18333C15.5917 3.74167 16.2667 4.41667 16.825 5.20833H16.8167ZM19.8333 8.19167C19.75 7.74167 19.3167 7.43333 18.8667 7.525C18.4167 7.60833 18.1167 8.04167 18.2 8.49167C18.2917 8.98333 18.3333 9.49167 18.3333 10C18.3333 10.5083 18.2917 11.0167 18.2 11.5083C18.1167 11.9583 18.4167 12.3917 18.8667 12.475C18.9167 12.4833 18.9667 12.4917 19.0167 12.4917C19.4083 12.4917 19.7583 12.2083 19.8333 11.8083C19.9417 11.2167 20 10.6083 20 10C20 9.39167 19.9417 8.78333 19.8333 8.19167Z" fill="#6E6E78"/>
</g>
<defs>
<clipPath id="clip0_1325_67">
<rect width="20" height="20" fill="white"/>
</clipPath>
</defs>
</svg>
