<svg width="16" height="16" viewBox="0 0 16 16" fill="none" xmlns="http://www.w3.org/2000/svg">
<path d="M7.1394 12.3905L10.8634 8.66655C10.9884 8.54153 11.0586 8.37199 11.0586 8.19521C11.0586 8.01844 10.9884 7.8489 10.8634 7.72388L7.1394 3.99988C7.04617 3.90667 6.92739 3.8432 6.79809 3.81749C6.66879 3.79178 6.53477 3.80498 6.41297 3.85543C6.29117 3.90587 6.18706 3.9913 6.1138 4.10091C6.04055 4.21051 6.00143 4.33938 6.0014 4.47121V11.9192C6.00143 12.051 6.04055 12.1799 6.1138 12.2895C6.18706 12.3991 6.29117 12.4846 6.41297 12.535C6.53477 12.5854 6.66879 12.5986 6.79809 12.5729C6.92739 12.5472 7.04617 12.4838 7.1394 12.3905Z" fill="#6E6E78"/>
</svg>
