<svg width="16" height="16" viewBox="0 0 16 16" fill="none" xmlns="http://www.w3.org/2000/svg">
<g clip-path="url(#clip0_1724_439)">
<path d="M12.2846 11.29C12.097 11.1025 11.8427 10.9972 11.5776 10.9972C11.3124 10.9972 11.0581 11.1025 10.8706 11.29L9.01656 13.1427L8.99989 1C8.99989 0.734784 8.89454 0.48043 8.707 0.292893C8.51946 0.105357 8.26511 0 7.99989 0C7.73468 0 7.48032 0.105357 7.29279 0.292893C7.10525 0.48043 6.99989 0.734784 6.99989 1L7.01523 13.1333L5.17323 11.29C4.98463 11.1078 4.73202 11.007 4.46983 11.0093C4.20763 11.0116 3.95682 11.1168 3.77141 11.3022C3.586 11.4876 3.48083 11.7384 3.47855 12.0006C3.47628 12.2628 3.57707 12.5154 3.75923 12.704L6.37189 15.3167C6.80946 15.7541 7.40284 15.9998 8.02156 15.9998C8.64028 15.9998 9.23366 15.7541 9.67123 15.3167L12.2846 12.704C12.472 12.5165 12.5773 12.2622 12.5773 11.997C12.5773 11.7318 12.472 11.4775 12.2846 11.29Z" fill="#6E6E78"/>
</g>
<defs>
<clipPath id="clip0_1724_439">
<rect width="16" height="16" fill="white"/>
</clipPath>
</defs>
</svg>
