<svg width="24" height="24" viewBox="0 0 24 24" fill="none" xmlns="http://www.w3.org/2000/svg">
<g clip-path="url(#clip0_1565_9)">
<path d="M4.87675 18.3941L0.95775 14.4751C0.321376 13.8083 -0.03368 12.9219 -0.03368 12.0001C-0.03368 11.0784 0.321376 10.192 0.95775 9.52513L4.87675 5.60613C5.15801 5.32474 5.53954 5.1666 5.9374 5.1665C6.33526 5.16641 6.71686 5.32437 6.99825 5.60563C7.27965 5.88689 7.43778 6.26842 7.43788 6.66628C7.43797 7.06414 7.28001 7.44574 6.99875 7.72713L4.21875 10.5081L22.4688 10.5311C22.8666 10.5311 23.2481 10.6892 23.5294 10.9705C23.8107 11.2518 23.9688 11.6333 23.9688 12.0311C23.9688 12.429 23.8107 12.8105 23.5294 13.0918C23.2481 13.3731 22.8666 13.5311 22.4688 13.5311L4.23775 13.5081L6.99875 16.2731C7.27199 16.556 7.42318 16.9349 7.41976 17.3282C7.41634 17.7215 7.25859 18.0977 6.98048 18.3759C6.70237 18.654 6.32615 18.8117 5.93285 18.8151C5.53956 18.8186 5.15965 18.6674 4.87675 18.3941Z" fill="#6E6E78"/>
</g>
<defs>
<clipPath id="clip0_1565_9">
<rect width="24" height="24" fill="white" transform="matrix(-1 0 0 1 24 0)"/>
</clipPath>
</defs>
</svg>
