<svg width="20" height="20" viewBox="0 0 20 20" fill="none" xmlns="http://www.w3.org/2000/svg">
<g clip-path="url(#clip0_1323_52)">
<path d="M19.8333 6.79619L16.9892 15.4629C16.8098 16.0656 16.4948 16.6193 16.0684 17.0815C15.642 17.5437 15.1155 17.9022 14.5292 18.1295C14.8406 17.4039 15.0008 16.6225 15 15.8329V7.49953C14.9982 5.95297 14.3831 4.47027 13.2895 3.37669C12.1959 2.28311 10.7132 1.66796 9.16667 1.66619H7.77917C8.29375 0.98547 9.00434 0.478546 9.81548 0.213529C10.6266 -0.0514871 11.4994 -0.0618985 12.3167 0.183694L17.055 1.63869C18.101 1.96364 18.9779 2.6858 19.4973 3.6501C20.0168 4.6144 20.1374 5.74394 19.8333 6.79619ZM13.3333 7.49953V15.8329C13.332 16.9375 12.8926 17.9966 12.1115 18.7777C11.3304 19.5588 10.2713 19.9982 9.16667 19.9995H4.16667C3.062 19.9982 2.00296 19.5588 1.22185 18.7777C0.440735 17.9966 0.00132321 16.9375 0 15.8329L0 7.49953C0.00132321 6.39487 0.440735 5.33583 1.22185 4.55471C2.00296 3.7736 3.062 3.33418 4.16667 3.33286H9.16667C10.2713 3.33418 11.3304 3.7736 12.1115 4.55471C12.8926 5.33583 13.332 6.39487 13.3333 7.49953ZM10 10.8329C10 10.3908 9.8244 9.96691 9.51184 9.65435C9.19928 9.34179 8.77536 9.16619 8.33333 9.16619C7.89131 9.16619 7.46738 9.34179 7.15482 9.65435C6.84226 9.96691 6.66667 10.3908 6.66667 10.8329C6.66667 10.3908 6.49107 9.96691 6.17851 9.65435C5.86595 9.34179 5.44203 9.16619 5 9.16619C4.55797 9.16619 4.13405 9.34179 3.82149 9.65435C3.50893 9.96691 3.33333 10.3908 3.33333 10.8329C3.33333 12.0412 4.62 13.6587 5.595 14.4812C5.89457 14.7346 6.27427 14.8737 6.66667 14.8737C7.05907 14.8737 7.43877 14.7346 7.73833 14.4812C8.71333 13.6587 10 12.0412 10 10.8329Z" fill="#6E6E78"/>
</g>
<defs>
<clipPath id="clip0_1323_52">
<rect width="20" height="20" fill="white"/>
</clipPath>
</defs>
</svg>
