<svg width="24" height="24" viewBox="0 0 24 24" fill="none" xmlns="http://www.w3.org/2000/svg">
<path d="M18.5858 10.7072L12.9998 16.2932C12.8123 16.4806 12.558 16.5859 12.2928 16.5859C12.0277 16.5859 11.7733 16.4806 11.5858 16.2932L5.99982 10.7072C5.86001 10.5673 5.7648 10.3891 5.72623 10.1952C5.68767 10.0012 5.70747 9.8002 5.78314 9.6175C5.85881 9.4348 5.98695 9.27863 6.15136 9.16875C6.31577 9.05886 6.50907 9.00019 6.70682 9.00015H17.8788C18.0766 9.00019 18.2699 9.05886 18.4343 9.16875C18.5987 9.27863 18.7268 9.4348 18.8025 9.6175C18.8782 9.8002 18.898 10.0012 18.8594 10.1952C18.8208 10.3891 18.7256 10.5673 18.5858 10.7072Z" fill="#6E6E78"/>
</svg>
