<svg width="24" height="24" viewBox="0 0 24 24" fill="none" xmlns="http://www.w3.org/2000/svg">
<path d="M5.41418 13.2928L11.0002 7.70685C11.1877 7.51938 11.442 7.41406 11.7072 7.41406C11.9723 7.41406 12.2267 7.51938 12.4142 7.70685L18.0002 13.2928C18.14 13.4327 18.2352 13.6109 18.2738 13.8048C18.3123 13.9988 18.2925 14.1998 18.2169 14.3825C18.1412 14.5652 18.013 14.7214 17.8486 14.8313C17.6842 14.9411 17.4909 14.9998 17.2932 14.9998L6.12118 14.9998C5.92343 14.9998 5.73013 14.9411 5.56572 14.8313C5.40131 14.7214 5.27317 14.5652 5.1975 14.3825C5.12183 14.1998 5.10203 13.9988 5.1406 13.8048C5.17917 13.6109 5.27437 13.4327 5.41418 13.2928Z" fill="#6E6E78"/>
</svg>
