<svg width="20" height="20" viewBox="0 0 20 20" fill="none" xmlns="http://www.w3.org/2000/svg">
<g clip-path="url(#clip0_1325_175)">
<path d="M15.8333 10H20V15.8333C20 18.1308 18.1308 20 15.8333 20H4.16667C1.86917 20 0 18.1308 0 15.8333V10H4.16667V10.8333C4.16667 11.2933 4.53917 11.6667 5 11.6667C5.46083 11.6667 5.83333 11.2933 5.83333 10.8333V10H14.1667V10.8333C14.1667 11.2933 14.5392 11.6667 15 11.6667C15.4608 11.6667 15.8333 11.2933 15.8333 10.8333V10ZM20 7.5V8.33333H15.8333V7.5C15.8333 7.04 15.4608 6.66667 15 6.66667C14.5392 6.66667 14.1667 7.04 14.1667 7.5V8.33333H5.83333V7.5C5.83333 7.04 5.46083 6.66667 5 6.66667C4.53917 6.66667 4.16667 7.04 4.16667 7.5V8.33333H0V7.5C0 5.2025 1.86917 3.33333 4.16667 3.33333H5.08417C5.47167 1.43417 7.155 0 9.16667 0H10.8333C12.845 0 14.5283 1.43417 14.9158 3.33333H15.8333C18.1308 3.33333 20 5.2025 20 7.5ZM6.82 3.33333H13.1792C12.8342 2.36583 11.9175 1.66667 10.8325 1.66667H9.16583C8.08083 1.66667 7.16417 2.36583 6.81917 3.33333H6.82Z" fill="#6E6E78"/>
</g>
<defs>
<clipPath id="clip0_1325_175">
<rect width="20" height="20" fill="white"/>
</clipPath>
</defs>
</svg>
