<svg width="20" height="20" viewBox="0 0 20 20" fill="none" xmlns="http://www.w3.org/2000/svg">
<g clip-path="url(#clip0_1441_1866)">
<path d="M1.4082 0.668661C0.736328 0.801474 0.166016 1.3796 0.0371094 2.0671C-0.0175781 2.35616 -0.0175781 11.7858 0.0371094 12.0749C0.169922 12.778 0.736328 13.3444 1.43945 13.4773C1.55664 13.4968 2.06836 13.5163 2.58008 13.5163H3.51367V15.028C3.51367 16.4929 3.51758 16.5437 3.5957 16.7116C3.6582 16.8405 3.7207 16.903 3.8418 16.9577C4.24414 17.1413 4.23633 17.1452 6.13086 15.2546C7.04492 14.3444 7.8418 13.5788 7.90039 13.5593C7.97461 13.528 9.13477 13.5163 11.4199 13.5163C13.5762 13.5163 14.9082 13.5007 15.041 13.4773C15.7441 13.3444 16.3105 12.778 16.4434 12.0749C16.498 11.7858 16.498 2.35616 16.4434 2.0671C16.3105 1.36397 15.7441 0.797567 15.041 0.664755C14.7793 0.61788 1.66211 0.61788 1.4082 0.668661ZM11.4824 4.21944C11.6582 4.30929 11.7949 4.53194 11.7949 4.72725C11.7949 4.92257 11.6582 5.14522 11.4824 5.23507C11.3301 5.31319 11.2598 5.31319 7.06836 5.31319C2.87695 5.31319 2.80664 5.31319 2.6543 5.23507C2.47852 5.14522 2.3418 4.92257 2.3418 4.72725C2.3418 4.53975 2.47852 4.30929 2.64648 4.22335C2.78711 4.14522 2.88867 4.14522 7.06055 4.14132C11.2637 4.14132 11.3301 4.14132 11.4824 4.21944ZM13.8262 6.56319C14.002 6.65304 14.1387 6.87569 14.1387 7.071C14.1387 7.26632 14.002 7.48897 13.8262 7.57882C13.6738 7.65694 13.6074 7.65694 8.24023 7.65694C2.87305 7.65694 2.80664 7.65694 2.6543 7.57882C2.47852 7.48897 2.3418 7.26632 2.3418 7.071C2.3418 6.8835 2.47852 6.65304 2.64648 6.5671C2.78711 6.48897 2.89258 6.48897 8.23242 6.48507C13.6113 6.48507 13.6738 6.48507 13.8262 6.56319ZM9.13867 8.90694C9.31445 8.99679 9.45117 9.21944 9.45117 9.41475C9.45117 9.61007 9.31445 9.83272 9.13867 9.92257C8.99023 10.0007 8.91602 10.0007 5.89648 10.0007C2.87695 10.0007 2.80273 10.0007 2.6543 9.92257C2.47852 9.83272 2.3418 9.61007 2.3418 9.41475C2.3418 9.22725 2.47852 8.99679 2.64648 8.91085C2.78711 8.83272 2.88086 8.83272 5.88867 8.82882C8.91602 8.82882 8.99023 8.82882 9.13867 8.90694Z" fill="#6E6E78"/>
<path d="M17.6562 7.52756C17.6562 12.4963 17.6602 12.3322 17.4297 12.883C17.1406 13.5705 16.5234 14.1877 15.8555 14.4572C15.3086 14.676 15.5195 14.6643 11.8281 14.6877L8.40625 14.7072L7.79297 15.2737L7.17969 15.8401L9.65234 15.8518L12.125 15.8596L13.8672 17.594C15.5625 19.2854 15.6094 19.3283 15.7852 19.3557C16.0586 19.3947 16.2891 19.2815 16.4023 19.0549C16.4805 18.8869 16.4844 18.8362 16.4844 17.3713V15.8596H17.375C17.8633 15.8596 18.375 15.8401 18.5156 15.8166C19.2383 15.7033 19.8242 15.1369 19.9609 14.4182C20.0156 14.1291 20.0156 4.69944 19.9609 4.41037C19.8594 3.87912 19.4844 3.38303 19.0156 3.16428C18.707 3.01975 18.4453 2.96897 18.0039 2.96897H17.6562V7.52756Z" fill="#6E6E78"/>
</g>
<defs>
<clipPath id="clip0_1441_1866">
<rect width="20" height="20" fill="white"/>
</clipPath>
</defs>
</svg>
