<svg width="20" height="20" viewBox="0 0 20 20" fill="none" xmlns="http://www.w3.org/2000/svg">
<g clip-path="url(#clip0_1328_2472)">
<path d="M6.83917 17.7445L0.61 11.5154C0.215833 11.1212 0 10.5979 0 10.042C0 9.48619 0.216667 8.96202 0.61 8.56869L6.88083 2.29785L8.05917 3.47618L1.78833 9.74785C1.6825 9.85368 1.66667 9.97785 1.66667 10.0429C1.66667 10.1079 1.6825 10.232 1.78917 10.3379L8.0175 16.567L6.83917 17.7454V17.7445ZM19.39 11.5154C19.7833 11.1212 20 10.5979 20 10.042C20 9.48619 19.7833 8.96202 19.39 8.56869L13.1192 2.29785L11.9408 3.47618L18.2117 9.74785C18.3175 9.85368 18.3333 9.97785 18.3333 10.042C18.3333 10.1062 18.3175 10.2312 18.2117 10.337L11.9825 16.5662L13.1608 17.7445L19.39 11.5154Z" fill="#6E6E78"/>
</g>
<defs>
<clipPath id="clip0_1328_2472">
<rect width="20" height="20" fill="white"/>
</clipPath>
</defs>
</svg>
