<svg width="20" height="20" viewBox="0 0 20 20" fill="none" xmlns="http://www.w3.org/2000/svg">
<g clip-path="url(#clip0_1543_9)">
<path d="M0.24189 7.12696C0.0623251 6.79389 -0.0208646 6.41738 0.00165685 6.03967C0.0241783 5.66195 0.15152 5.29799 0.36939 4.98862C0.725438 4.46622 1.20226 4.03742 1.75939 3.73862L8.01022 0.48529C8.62461 0.165816 9.30691 -0.000976563 9.99939 -0.000976562C10.6919 -0.000976563 11.3742 0.165816 11.9886 0.48529L18.2386 3.74112C18.7957 4.03992 19.2725 4.46872 19.6286 4.99112C19.8464 5.30049 19.9738 5.66445 19.9963 6.04217C20.0188 6.41988 19.9356 6.79639 19.7561 7.12946C19.5627 7.49515 19.2728 7.80079 18.9178 8.01311C18.5628 8.22544 18.1564 8.3363 17.7427 8.33362H2.25606C1.84202 8.33621 1.43523 8.22505 1.08005 8.01226C0.724866 7.79948 0.434939 7.49324 0.24189 7.12696ZM19.1661 18.3336C19.1661 17.8916 18.9905 17.4677 18.6779 17.1551C18.3653 16.8426 17.9414 16.667 17.4994 16.667V10.0003H15.8327V16.667H13.3327V10.0003H11.6661V16.667H8.33272V10.0003H6.66606V16.667H4.16606V10.0003H2.49939V16.667C2.05736 16.667 1.63344 16.8426 1.32088 17.1551C1.00832 17.4677 0.832723 17.8916 0.832723 18.3336C0.611709 18.3336 0.399748 18.4214 0.243468 18.5777C0.0871872 18.734 -0.000610177 18.9459 -0.000610177 19.167C-0.000610177 19.388 0.0871872 19.5999 0.243468 19.7562C0.399748 19.9125 0.611709 20.0003 0.832723 20.0003H19.1661C19.3871 20.0003 19.599 19.9125 19.7553 19.7562C19.9116 19.5999 19.9994 19.388 19.9994 19.167C19.9994 18.9459 19.9116 18.734 19.7553 18.5777C19.599 18.4214 19.3871 18.3336 19.1661 18.3336Z" fill="#6E6E78"/>
</g>
<defs>
<clipPath id="clip0_1543_9">
<rect width="20" height="20" fill="white"/>
</clipPath>
</defs>
</svg>
