<svg width="20" height="20" viewBox="0 0 20 20" fill="none" xmlns="http://www.w3.org/2000/svg">
<g clip-path="url(#clip0_1328_2480)">
<path d="M10 0C7.34872 0.00286757 4.80684 1.05736 2.9321 2.9321C1.05736 4.80684 0.00286757 7.34872 0 10C0.5 23.25 19.5 23.2442 20 10C19.9971 7.34872 18.9426 4.80684 17.0679 2.9321C15.1932 1.05736 12.6513 0.00286757 10 0ZM10 18.3333C7.79061 18.3309 5.6724 17.4522 4.11012 15.8899C2.54785 14.3276 1.66909 12.2094 1.66667 10C2.08333 -1.04 17.9167 -1.03667 18.3333 10C18.3309 12.2094 17.4522 14.3276 15.8899 15.8899C14.3276 17.4522 12.2094 18.3309 10 18.3333ZM5.83333 7.91667C5.83333 7.58515 5.96503 7.2672 6.19945 7.03278C6.43387 6.79836 6.75181 6.66667 7.08333 6.66667C7.41485 6.66667 7.7328 6.79836 7.96722 7.03278C8.20164 7.2672 8.33333 7.58515 8.33333 7.91667C8.33333 8.24819 8.20164 8.56613 7.96722 8.80055C7.7328 9.03497 7.41485 9.16667 7.08333 9.16667C6.75181 9.16667 6.43387 9.03497 6.19945 8.80055C5.96503 8.56613 5.83333 8.24819 5.83333 7.91667ZM11.6667 7.91667C11.6667 7.58515 11.7984 7.2672 12.0328 7.03278C12.2672 6.79836 12.5851 6.66667 12.9167 6.66667C13.2482 6.66667 13.5661 6.79836 13.8005 7.03278C14.035 7.2672 14.1667 7.58515 14.1667 7.91667C14.1667 8.24819 14.035 8.56613 13.8005 8.80055C13.5661 9.03497 13.2482 9.16667 12.9167 9.16667C12.5851 9.16667 12.2672 9.03497 12.0328 8.80055C11.7984 8.56613 11.6667 8.24819 11.6667 7.91667ZM14.8683 12.9517C14.3787 13.8149 13.6718 14.535 12.8177 15.0405C11.9637 15.546 10.9923 15.8193 10 15.8333C9.00699 15.8195 8.03485 15.5462 7.18001 15.0408C6.32516 14.5353 5.61731 13.8151 5.12667 12.9517C5.03807 12.8134 4.99231 12.652 4.99514 12.4878C4.99797 12.3236 5.04926 12.1638 5.14257 12.0287C5.23588 11.8935 5.36705 11.789 5.5196 11.7281C5.67215 11.6673 5.83928 11.6528 6 11.6867C7.2814 12.1694 8.63181 12.444 10 12.5C11.3659 12.4433 12.714 12.1687 13.9933 11.6867C14.1542 11.6524 14.3216 11.6665 14.4744 11.7272C14.6272 11.7879 14.7587 11.8924 14.8523 12.0277C14.9458 12.1629 14.9973 12.3228 15.0001 12.4872C15.003 12.6517 14.9571 12.8132 14.8683 12.9517Z" fill="#6E6E78"/>
</g>
<defs>
<clipPath id="clip0_1328_2480">
<rect width="20" height="20" fill="white"/>
</clipPath>
</defs>
</svg>
