<svg width="162" height="128" viewBox="0 0 162 128" fill="none" xmlns="http://www.w3.org/2000/svg">
<g clip-path="url(#clip0_1563_702)">
<path d="M131.96 76.3847C132.187 77.1545 132.413 77.8132 132.572 78.4882C132.688 78.9816 132.99 79.2214 133.431 79.3905C134.056 79.6302 134.727 79.8208 135.264 80.1968C135.845 80.6044 136.446 81.1218 136.765 81.7338C137.308 82.7735 138.126 83.4285 139.12 83.8979C143.174 85.8121 147.467 86.4784 151.918 86.2752C153.257 86.2134 154.595 86.1301 155.934 86.0885C156.155 86.0822 156.381 86.2449 156.646 86.3446C155.341 88.8886 153.636 90.953 151.545 92.7044C149.438 94.4698 147.071 95.7897 144.341 96.167C142.232 96.4585 140.075 96.4623 137.937 96.49C136.984 96.5027 136.03 96.2452 135.071 96.1481C134.913 96.1317 134.665 96.2604 134.58 96.3967C133.759 97.7014 132.523 98.0283 131.131 97.7658C129.882 97.5298 128.661 97.1399 127.434 96.7942C127.151 96.7147 126.937 96.6389 126.737 96.9431C125.359 99.0441 123.406 100.479 121.257 101.705C120.038 102.402 119.261 103.486 118.755 104.81C117.78 107.36 115.867 108.916 113.288 109.674C109.682 110.733 105.981 110.772 102.283 110.475C98.9975 110.212 95.7305 109.721 92.4459 109.415C91.3758 109.316 90.2742 109.427 89.1979 109.547C87.0287 109.788 84.8596 110.054 82.7043 110.397C79.908 110.843 77.1054 111.282 74.3406 111.887C70.3304 112.764 66.3303 113.709 62.3643 114.768C58.0903 115.909 53.9829 117.529 50.027 119.524C46.5909 121.258 43.1183 122.921 39.7188 124.722C38.1011 125.58 36.6032 126.669 35.0776 127.692C34.5224 128.064 33.9962 128.085 33.4145 127.849C31.8435 127.213 30.2952 126.509 28.6951 125.957C25.8446 124.974 22.9814 124.02 20.0892 123.172C17.3964 122.382 14.6594 121.746 11.9426 121.042C11.8214 121.011 11.694 120.998 11.5754 120.961C10.2971 120.568 10.2668 120.524 10.1242 119.189C10.0775 118.751 9.9993 118.317 9.92359 117.806C9.03019 118.367 8.73365 117.619 8.29199 117.12C6.54431 115.148 5.48812 112.814 4.83322 110.305C4.35875 108.489 4.12783 106.629 4.70072 104.729C2.96944 103.703 2.84325 101.914 2.68804 100.192C2.52905 98.4358 2.57574 96.6617 2.42936 94.9039C2.35869 94.0597 2.11263 93.2142 1.83123 92.4092C1.3921 91.1473 0.870953 89.9132 0.356111 88.6804C-0.0842803 87.628 0.126452 86.6614 0.99083 86.0544C1.45267 85.7301 1.92461 85.7049 2.37636 86.0746C2.6994 86.3383 3.01487 86.6121 3.32402 86.8923C3.86915 87.3869 4.00291 87.368 4.29314 86.6816C4.95814 85.1042 5.21178 83.4512 5.04142 81.7552C4.88495 80.193 5.23323 78.9375 6.50014 77.8497C9.58162 75.2049 12.9319 72.9928 16.5168 71.1076C20.2923 69.1227 24.0641 67.1314 27.803 65.0809C29.1696 64.3314 30.4302 63.3887 31.7564 62.5597C32.9855 61.7912 33.4057 60.6076 33.6442 59.2612C33.9041 57.7987 34.2511 56.3488 34.6145 54.9065C35.1243 52.8749 36.5275 51.4578 38.0456 50.1467C38.5326 49.7265 39.079 49.3631 39.633 49.0312C40.4355 48.5505 41.2532 48.5012 42.0356 49.112C42.1504 49.2016 42.2867 49.2634 42.4419 49.3555C43.4047 47.9536 43.7328 46.3889 43.5221 44.7472C43.3921 43.7402 43.0514 42.7585 42.7712 41.7742C42.7006 41.5256 42.5555 41.2304 42.3523 41.1004C41.3428 40.4543 41.257 39.3704 40.9996 38.3735C40.8431 37.7653 40.7523 37.1394 40.645 36.5186C40.4911 35.6289 40.7346 35.0725 41.604 34.8012C43.0804 34.338 44.5909 33.9772 46.0887 33.586C47.2206 33.2894 48.3575 33.0118 49.6547 32.685C49.6547 31.0395 49.7683 29.4142 49.6244 27.8117C49.4667 26.0678 50.2743 25.0974 51.7393 24.4614C51.8542 24.4109 51.9665 24.3529 52.08 24.2999C53.0921 23.8267 53.8757 23.2929 54.465 22.1497C55.8177 19.525 58.0146 17.5376 60.3087 15.6864C63.2261 13.333 66.5587 11.7267 70.0213 10.4143C71.8876 9.70641 73.8901 9.35813 75.8296 8.8395C76.1085 8.76505 76.3886 8.6742 76.6473 8.54927C80.3787 6.73345 84.1857 5.10311 88.1139 3.75418C90.8774 2.80526 93.7116 2.15666 96.5495 1.47777C99.6827 0.729484 102.827 0.164168 106.04 0.0203147C108.06 -0.0705397 110.062 0.149025 112.046 0.565441C113.336 0.835481 114.561 1.20268 115.624 2.01406C117.002 3.0652 117.096 5.77064 115.841 6.97825C114.221 8.53665 112.29 9.59536 110.334 10.6541C107.014 12.451 103.742 14.34 100.45 16.1911C100.459 16.2643 100.469 16.3375 100.478 16.4107C100.666 16.4953 100.849 16.6012 101.044 16.6631C103.519 17.4492 106.006 18.1962 108.465 19.0291C109.187 19.2739 109.815 19.7799 110.513 20.1092C110.729 20.2114 111.091 20.219 111.292 20.1042C114.317 18.3679 117.532 17.1842 120.962 16.5306C121.887 16.3539 122.766 15.9249 123.654 15.5804C128.111 13.8567 132.58 12.1544 137.274 11.1891C141.052 10.4118 144.841 9.63827 148.704 9.4023C151.61 9.22437 154.488 9.3657 157.327 10.1531C158.741 10.5455 160.069 11.0011 161.176 12.003C162.083 12.8257 162.167 15.7432 160.974 16.735C159.16 18.2455 157.118 19.2979 155.017 20.2935C150.531 22.4185 145.993 24.4791 141.886 27.2754C139.163 29.1291 136.673 31.3335 134.141 33.4547C133.67 33.8497 133.541 34.6283 133.175 35.1759C131.989 36.9476 130.761 38.689 129.566 40.4543C129.446 40.6322 129.35 40.925 129.41 41.1117C130.094 43.2594 129.812 45.3605 129.064 47.411C128.336 49.4047 128.376 51.3972 128.841 53.4175C129.12 54.6327 129.926 55.4125 130.976 55.9917C131.159 56.0926 131.322 56.2403 131.515 56.3059C131.762 56.3904 132.06 56.5154 132.286 56.451C133.956 55.9753 135.661 55.6472 137.384 55.8895C140.575 56.3374 143.704 57.0113 146.76 58.128C149.867 59.2624 152.436 61.1452 154.908 63.2159C155.971 64.1055 156.918 65.1453 157.835 66.1901C158.139 66.5371 158.301 67.1087 158.322 67.5857C158.368 68.7088 157.991 69.4596 156.612 69.4508C155.374 69.4432 154.136 69.3372 152.901 69.2463C150.058 69.0381 147.227 69.023 144.458 69.818C143.575 70.0703 142.715 70.4009 141.856 70.7252C141.704 70.782 141.594 70.9801 141.491 71.1303C140.292 72.8553 138.74 74.1083 136.814 74.9941C135.553 75.5746 134.234 75.7942 132.919 76.1021C132.544 76.1904 132.18 76.3204 131.959 76.386L131.96 76.3847ZM154.876 87.4437C154.406 87.6671 153.934 87.8892 153.466 88.115C152.976 88.351 152.494 88.6034 151.998 88.8242C151.566 89.0173 151.119 89.1775 150.677 89.3529L150.656 89.2558L154.499 87.0715C154.474 86.9995 154.449 86.9264 154.424 86.8544C148.465 87.3806 142.71 86.8683 137.44 83.5862C137.44 84.8619 137.431 86.1188 137.454 87.3743C137.457 87.5005 137.626 87.6923 137.757 87.7365C138.668 88.0469 139.587 88.3384 140.51 88.6109C141.3 88.8444 142.1 89.0425 142.895 89.257C142.885 89.31 142.875 89.3618 142.865 89.4148C141.018 89.1397 139.172 88.8633 137.331 88.5882C136.92 90.0924 136.491 91.6697 136.04 93.3303H141.771C140.702 93.5865 139.632 93.7505 138.556 93.8376C137.725 93.9045 136.886 93.8704 136.052 93.8969C135.931 93.9007 135.747 93.965 135.703 94.0546C135.487 94.4963 135.309 94.9569 135.072 95.5209C136.224 95.5865 137.243 95.6938 138.263 95.6925C141.803 95.69 145.309 95.5361 148.492 93.6597C151.123 92.1088 153.177 89.9725 154.971 87.5472C155.007 87.4917 155.042 87.4349 155.077 87.3794C155.011 87.4008 154.942 87.4223 154.876 87.4437ZM1.8224 87.0854C1.30167 87.7247 1.27517 88.3792 1.7429 89.0488C1.82619 89.1687 1.90695 89.2987 1.94985 89.4362C2.54419 91.353 3.21298 93.2508 3.69123 95.1966C4.02057 96.5342 4.08871 97.9361 4.26159 99.3116C4.42437 100.61 4.95183 101.803 5.30011 103.039C5.64964 104.282 6.46355 104.418 7.39102 104.615C9.37972 105.038 11.3949 105.356 13.3597 105.868C18.0614 107.095 22.7442 108.392 27.4244 109.698C29.4863 110.273 31.4712 111.057 33.2896 112.219C33.841 112.573 34.4606 112.856 35.1294 112.605C35.8676 112.329 36.6272 112.056 37.2872 111.639C38.5036 110.868 39.6166 109.934 40.8381 109.172C44.0899 107.143 47.4742 105.363 51.0794 104.031C55.723 102.316 60.1812 100.09 65.0154 98.8989C66.4969 98.5343 68.0048 98.1469 69.5165 98.0661C72.3456 97.916 75.1911 97.8718 78.0228 97.9816C83.5586 98.1961 89.0792 98.1734 94.581 97.4793C96.4321 97.2459 98.3123 97.0781 100.11 96.615C102.17 96.085 104.208 95.3834 106.156 94.5304C108.945 93.3101 111.31 91.4413 113.306 89.1334C115.353 86.7674 116.232 83.8083 117.455 81.017C117.831 80.159 117.75 78.805 119.248 78.8163C120.77 77.7299 122.543 77.3286 124.333 77.0472C126.028 76.7797 127.744 76.651 129.451 76.4579C129.656 76.4352 129.931 76.463 130.05 76.3443C130.586 75.8068 131.077 75.2238 131.645 74.5903C130.292 74.2294 128.895 74.2408 127.613 73.6301C127.706 73.543 127.723 73.5165 127.735 73.5178C127.835 73.5329 127.935 73.5493 128.032 73.5733C130.453 74.1739 132.922 74.5929 135.361 73.9089C138.726 72.9651 140.778 70.623 141.628 67.2652C142.243 64.8386 141.993 62.4222 141.231 60.0612C140.62 58.1671 139.4 56.8573 137.329 56.7539C136.024 56.6895 134.674 56.7816 133.401 57.0617C131.687 57.439 130.017 58.0384 128.61 59.1905C128.577 59.14 128.544 59.0896 128.51 59.0391C129.349 58.3514 130.188 57.6637 131.082 56.933C128.338 55.8163 127.748 53.5209 127.854 50.8445C127.787 50.8571 127.719 50.8685 127.652 50.8811C127.415 51.2824 127.176 51.6824 126.844 52.2427C126.882 51.8427 126.865 51.6054 126.931 51.3972C127.493 49.6672 128.11 47.9536 128.631 46.2122C129.084 44.7005 129.203 43.1497 128.843 41.4373C126.979 44.2197 126.327 47.4854 124.322 50.0294C124.298 49.9107 124.309 49.8073 124.343 49.7126C124.805 48.4432 125.277 47.1775 125.733 45.9056C126.461 43.8715 127.412 41.9622 128.678 40.1982C130.079 38.2448 131.397 36.2321 132.759 34.251C133.04 33.8409 133.034 33.4648 132.798 33.0257C131.908 31.3664 131.077 29.6742 130.167 28.0249C127.932 23.9756 125.045 20.4373 121.627 17.3306C121.441 17.1628 121.045 17.0795 120.801 17.1476C119.856 17.4139 118.938 17.7672 118.002 18.0701C115.37 18.9231 112.834 19.9767 110.532 21.5415C107.986 23.2727 105.76 25.3397 103.936 27.8281C103.659 28.2079 103.362 28.5044 102.792 28.4489C103.689 26.8501 104.81 25.4961 106.083 24.2822C107.345 23.0809 108.684 21.9604 110.022 20.7755C109.388 20.4525 108.787 20.0525 108.126 19.8291C105.648 18.9912 103.171 18.1344 100.652 17.4353C98.7376 16.9028 96.7779 16.4372 94.8081 16.2252C90.6301 15.7747 86.4482 15.9779 82.3043 16.6972C81.214 16.8864 80.1402 17.1842 79.0714 17.4795C78.5603 17.6208 78.0783 17.8694 77.5319 18.0915C77.8272 17.506 79.3301 16.9129 82.1592 16.2101C81.6077 13.815 80.1944 11.9551 78.4076 10.3601C77.9571 9.95752 77.5243 9.34551 76.747 9.52722C74.911 9.95499 73.0195 10.2276 71.2528 10.8497C67.8773 12.0383 64.6243 13.5299 61.7093 15.6599C59.1213 17.5514 56.8297 19.737 55.0303 22.4084C54.7249 22.8614 54.5129 23.4179 54.1129 23.756C53.5615 24.2229 52.8914 24.5649 52.239 24.8942C50.9595 25.5403 50.2062 26.3757 50.3563 27.9833C50.5065 29.5859 50.3525 31.2175 50.3122 32.8364C50.2894 33.7399 49.974 33.9746 49.1184 33.7954C48.9986 33.7702 48.8635 33.7576 48.7474 33.7879C46.5329 34.3469 44.3233 34.9198 42.1075 35.4699C41.58 35.6012 41.3668 35.88 41.4627 36.4163C41.6318 37.3653 41.7832 38.318 41.9536 39.2669C41.999 39.5231 42.0861 39.7729 42.163 40.0594C43.4779 38.9792 44.2022 39.3817 44.9101 40.1174C45.165 40.3824 45.3467 40.7307 45.5095 41.0663C46.4912 43.0916 46.7613 45.2721 46.8723 47.4842C46.8938 47.9195 46.8748 48.3561 46.8748 48.9076C48.4219 48.37 49.8907 47.7593 51.5589 47.888C51.487 47.9763 51.4605 48.0419 51.415 48.0596C50.0484 48.582 48.6881 49.1196 47.3102 49.6129C45.9347 50.1063 44.4571 50.4041 43.3176 51.3758C42.0848 52.4294 40.8709 53.5222 39.7743 54.7147C38.1465 56.4851 36.5036 58.2681 35.1067 60.2164C33.9432 61.8392 32.5539 63.1641 30.9412 64.2367C29.2579 65.356 27.4471 66.2873 25.6717 67.2652C23.2704 68.5876 20.8551 69.8823 18.4387 71.1757C15.5591 72.7177 12.6846 74.2711 10.0737 76.2547C9.12987 76.9715 8.22133 77.7362 7.38471 78.4075C7.92731 79.3337 8.52796 80.1123 8.87119 80.9918C10.0132 83.9105 10.2946 86.9768 10.176 90.0861C10.1432 90.934 9.70276 91.2773 8.904 90.9669C7.60428 90.4621 6.30329 89.9296 5.0818 89.2633C3.95117 88.645 2.92653 87.8362 1.81988 87.0866L1.8224 87.0854ZM11.2321 120.108C11.6422 120.158 12.0006 120.173 12.3464 120.247C14.272 120.661 16.2127 121.025 18.1156 121.528C20.9674 122.283 23.818 123.061 26.6206 123.976C28.8276 124.695 30.9677 125.624 33.1281 126.486C33.6959 126.713 34.1514 126.702 34.694 126.351C36.5174 125.17 38.3333 123.965 40.2387 122.927C42.794 121.538 45.4325 120.305 48.0294 118.993C51.6611 117.158 55.3849 115.538 59.2588 114.292C63.9113 112.797 68.6799 111.752 73.4523 110.718C76.8858 109.973 80.414 109.756 83.8046 108.786C84.2816 108.649 84.8091 108.7 85.2987 108.593C87.642 108.075 90.0092 108.005 92.3841 108.238C95.4567 108.541 98.5218 108.913 101.594 109.219C105.081 109.566 108.557 109.564 112.006 108.812C114.564 108.254 116.608 107.03 117.664 104.523C118.371 102.846 118.876 101.074 118.776 99.2661C118.645 96.8648 118.259 94.4774 118.001 92.2476C118.825 95.1184 120.379 98.0182 119.566 101.539C120.246 101.071 120.714 100.736 121.195 100.418C122.417 99.6119 123.705 98.899 124.64 97.7178C125.209 96.9986 125.84 96.3273 126.453 95.6433C126.737 95.3253 127.09 95.2029 127.421 95.5411C128.651 96.8017 130.174 97.02 131.828 96.8434C132.597 96.7613 133.236 96.4219 133.552 95.7405C134.177 94.3991 134.777 93.0388 135.266 91.6445C136.176 89.0602 136.57 86.3913 136.226 83.6493C136.086 82.5325 135.608 81.6063 134.539 81.094C134.125 80.8959 133.706 80.6927 133.269 80.5565C132.072 80.1855 131.479 79.446 131.496 78.145C131.508 77.1166 131.149 76.8062 130.149 76.7721C126.819 76.6573 123.581 77.1481 120.491 78.4062C119.638 78.7532 118.733 79.1886 118.331 80.0997C117.799 81.2997 117.44 82.5767 116.896 83.7692C116.135 85.4386 115.445 87.1787 114.419 88.6804C112.105 92.0685 108.853 94.3449 105.09 95.9323C101.665 97.3759 98.0524 97.9664 94.3955 98.3728C90.6515 98.7892 86.8975 98.9949 83.1295 98.9633C82.7232 98.9595 82.274 99.0314 81.9169 99.2106C80.1225 100.11 78.318 101.001 76.5779 101.999C73.0195 104.042 69.4988 106.152 65.9606 108.23C65.7839 108.334 65.5883 108.445 65.3927 108.465C64.6432 108.542 63.8835 108.536 63.1403 108.648C60.5497 109.041 57.949 109.395 55.3811 109.906C52.8208 110.416 50.3803 111.323 48.1821 112.768C46.9089 113.605 45.7063 114.549 44.4382 115.394C42.5782 116.633 41.0778 118.314 39.1472 119.493C37.6657 120.397 36.2234 120.737 34.5691 120.418C34.3344 120.372 34.0959 120.343 33.8271 120.301C33.8044 120.477 33.7792 120.578 33.7792 120.678C33.7804 121.561 33.8158 122.445 33.7754 123.326C33.7628 123.606 33.6164 123.977 33.4057 124.116C33.258 124.213 32.8605 124.04 32.6372 123.893C30.8946 122.748 29.5267 121.239 28.4125 119.485C28.2547 119.236 28.0112 118.987 27.7487 118.871C26.7001 118.406 25.6275 117.996 24.5146 117.546C24.4502 117.641 24.4161 117.723 24.3568 117.779C23.8193 118.277 23.3044 118.238 22.8123 117.662C22.7164 117.549 22.6066 117.446 22.5334 117.321C22.2344 116.817 21.7864 116.594 21.2211 116.458C20.3062 116.237 19.3737 116.01 18.5232 115.622C17.6967 115.245 16.6695 116.043 15.9856 115.114C15.9692 115.091 15.9048 115.105 15.8632 115.099C14.5395 114.872 13.2171 114.633 11.8921 114.417C10.3993 114.174 10.34 114.247 10.1457 115.775C10.0725 116.353 9.96523 116.854 10.6037 117.223C10.8044 117.339 10.8952 117.727 10.9457 118.006C11.0681 118.685 11.1375 119.374 11.2347 120.106L11.2321 120.108ZM125.488 20.0575C125.615 20.2783 125.666 20.4184 125.758 20.5193C128.002 22.9712 129.907 25.6627 131.436 28.613C131.657 29.0382 131.829 29.0849 132.243 28.888C134.06 28.0237 135.891 27.1858 137.722 26.3517C138.231 26.1195 138.76 25.9302 139.281 25.7208L139.317 25.8141C136.89 27.071 134.465 28.3278 131.989 29.6111C132.547 30.6938 133.057 31.6831 133.589 32.7153C133.744 32.6068 133.868 32.5361 133.971 32.4427C138.038 28.7896 142.431 25.6047 147.346 23.1794C150.557 21.5945 153.784 20.0398 157.003 18.4675C158.192 17.8871 159.359 17.2713 160.177 16.1785C160.632 15.569 161.011 14.9293 160.801 14.0725C156.382 14.6454 152.173 15.9009 147.986 17.2549C151.846 15.1514 155.981 13.8945 160.347 13.1122C159.716 12.5671 159.103 12.0711 158.402 11.8175C156.155 11.0011 153.802 10.6919 151.419 10.6023C148.282 10.4837 145.153 10.6402 142.066 11.1815C139.717 11.5929 137.358 12.061 135.086 12.7677C132.413 13.5993 129.819 14.6908 127.209 15.7179C125.776 16.282 124.38 16.9432 122.984 17.5527C123.316 17.9035 123.614 18.2253 123.919 18.5395C124.22 18.8474 124.528 19.1477 124.785 19.4039C130.121 16.9344 135.807 16.2328 141.504 15.5678C136.071 16.6542 130.818 18.3603 125.493 20.0562L125.488 20.0575ZM100.812 13.6359C100.832 13.6876 100.851 13.7393 100.871 13.7911C99.5994 14.4144 98.2013 14.7917 96.9407 15.6851C97.6675 15.858 98.2505 16.0132 98.8423 16.1268C99.0089 16.1583 99.2247 16.1129 99.3723 16.0246C100.363 15.4391 101.326 14.8043 102.328 14.2378C105.007 12.7261 107.716 11.2661 110.385 9.73543C111.758 8.94802 113.122 8.1215 114.389 7.17762C115.148 6.61105 115.657 5.75424 115.666 4.5908C113.528 5.16495 111.464 5.72017 109.399 6.27539C109.385 6.22113 109.371 6.16687 109.357 6.11261C111.387 5.43877 113.417 4.76493 115.505 4.07217C115.181 3.35921 114.606 2.75099 113.835 2.4267C111.381 1.39575 108.757 1.25694 106.159 1.29859C103.774 1.33644 101.384 1.60774 99.0152 1.92447C96.0801 2.31565 93.1652 2.91251 90.408 4.01034C87.3328 5.23435 84.3233 6.62493 81.2986 7.97134C80.3572 8.39028 79.455 8.89755 78.4909 9.38715C78.9364 9.78212 79.2972 10.1354 79.696 10.4345C79.8234 10.5304 80.0947 10.5582 80.2373 10.4888C82.6576 9.3127 85.2583 8.68051 87.8338 7.97765C89.165 7.61423 90.5165 7.32779 91.8654 7.03251C92.5469 6.88361 93.2409 6.79023 93.9286 6.67162C92.0673 7.0161 81.4853 10.6982 80.7635 11.2976C81.5787 12.8649 82.3812 14.4081 83.1952 15.9728C84.1504 15.8555 85.2116 15.7306 86.2703 15.5955C89.2004 15.2195 92.1317 15.1324 95.0769 15.429C95.6132 15.4832 96.1899 15.3318 96.7224 15.1854C97.2839 15.0302 97.8126 14.7589 98.3603 14.5507C99.1754 14.2403 99.9944 13.9412 100.812 13.6384V13.6359ZM42.1138 110.454C41.8715 110.565 41.7024 110.632 41.5422 110.716C40.0456 111.508 38.5667 112.332 37.0525 113.087C35.5269 113.85 34.0442 113.98 32.4593 113.014C31.133 112.207 29.6314 111.689 28.1134 111C27.8913 111.47 27.7046 111.79 27.5885 112.133C27.461 112.509 27.4042 112.908 27.3096 113.296C27.2276 113.63 27.1367 113.962 27.0509 114.295C26.9601 114.268 26.8705 114.243 26.7796 114.217C27.0585 113.145 27.3374 112.074 27.6339 110.935C25.4521 110.32 23.2401 109.698 20.8804 109.033C20.7744 109.76 20.5031 110.411 20.6331 110.969C20.9296 112.238 21.3447 113.496 21.8621 114.692C22.2848 115.669 22.9259 116.551 23.4836 117.499C24.4843 116.681 25.3335 115.976 26.1941 115.284C27.0938 114.563 27.1998 114.592 27.5443 115.713C28.1967 117.848 29.2402 119.759 30.805 121.359C31.4473 122.016 32.1615 122.604 32.8441 123.223L33.0473 123.102C33.0473 122.885 33.0397 122.666 33.0486 122.449C33.123 120.731 33.1811 119.009 33.2934 117.293C33.3148 116.974 33.5571 116.669 33.7098 116.327C34.7054 117.639 35.701 118.695 36.954 119.48C37.0916 119.566 37.4298 119.522 37.5534 119.407C38.0859 118.908 38.6147 118.394 39.0689 117.824C40.6728 115.818 41.4791 113.441 42.1504 111.009C42.1895 110.866 42.134 110.696 42.1151 110.453L42.1138 110.454ZM157.591 67.6412C156.98 66.4463 156.356 65.4759 155.424 64.744C151.881 61.9628 148.328 59.1956 143.833 58.0662C142.796 57.805 141.76 57.5349 140.831 57.2977C141.289 58.335 141.728 59.3672 142.208 60.3792C142.272 60.5155 142.527 60.6025 142.707 60.6366C143.26 60.7414 143.863 60.7048 144.369 60.9117C145.545 61.3925 146.68 61.9755 147.82 62.5395C148.024 62.6405 148.171 62.8537 148.344 63.0152C146.71 62.1925 143.694 61.284 142.425 61.3761C143.167 64.2733 142.527 67.1062 141.933 70.0199C142.17 69.9505 142.287 69.929 142.394 69.8836C144.904 68.816 147.52 68.2936 150.247 68.4047C152.115 68.4804 153.98 68.6192 155.846 68.7126C156.24 68.7328 156.643 68.7113 157.03 68.6394C157.201 68.6078 157.395 68.4312 157.472 68.2697C157.507 68.1977 157.303 67.9567 157.161 67.8659C156.347 67.3498 155.518 66.8551 154.695 66.3529L154.757 66.2204C155.644 66.6646 156.53 67.11 157.592 67.6412H157.591ZM14.5332 109.149C14.6051 109.14 14.6783 109.131 14.7502 109.123C14.8285 109.25 14.9584 109.371 14.9761 109.506C15.2007 111.232 15.9149 112.79 16.6241 114.351C16.8222 114.786 17.0834 114.822 17.38 114.482C18.0273 113.741 18.6708 112.995 19.2829 112.226C19.6425 111.773 20.016 111.303 20.2444 110.781C20.4791 110.246 20.5435 109.637 20.6911 109.028C18.0677 108.324 15.3913 107.553 12.6871 106.894C10.1747 106.282 7.63204 105.787 5.10199 105.241C4.27042 108.874 6.79289 115.183 9.27246 117.151C9.31789 116.934 9.37215 116.733 9.40117 116.528C9.61191 115.052 9.94756 113.615 10.5848 112.251C10.6895 112.026 10.576 111.644 10.4599 111.38C9.98794 110.311 9.44282 109.274 8.99233 108.196C8.81567 107.772 8.81567 107.275 8.73491 106.811C8.82324 106.783 8.91031 106.754 8.99864 106.726C10.1179 109.046 10.9974 111.511 12.8764 113.385C13.448 111.925 13.9906 110.538 14.5332 109.15V109.149ZM68.0919 106.041C69.408 105.314 70.656 104.643 71.88 103.93C72.0869 103.81 72.2358 103.527 72.3305 103.288C72.7027 102.336 73.0056 101.355 73.4094 100.417C73.6491 99.8618 74.029 99.3658 74.4138 98.7324C73.5532 98.7324 72.8024 98.7223 72.0529 98.7349C69.7575 98.7728 67.4912 99.0415 65.2678 99.622C64.4249 99.8416 64.3429 99.8958 64.6444 100.748C64.9826 101.705 65.3637 102.682 65.9189 103.522C66.5196 104.431 67.3448 105.192 68.0919 106.041ZM61.4481 108.198C61.7005 105.357 63.0078 102.873 63.8507 100.086C60.4437 100.962 57.496 102.442 54.4271 103.752C54.5445 103.891 54.576 103.953 54.6252 103.982C56.4575 105.054 57.9641 106.465 59.1074 108.262C59.178 108.372 59.3736 108.478 59.4986 108.465C60.1408 108.4 60.7806 108.294 61.4494 108.198H61.4481ZM44.4243 108.986C45.6836 110.154 45.9903 111.601 46.3726 113.033C46.5152 112.979 46.6149 112.951 46.7032 112.904C48.1985 112.12 49.6951 111.335 51.1841 110.537C51.2914 110.479 51.3835 110.333 51.4176 110.209C51.6523 109.364 51.9526 108.523 52.0674 107.66C52.1822 106.793 51.9286 105.944 51.5198 105.051C49.1386 106.37 46.8294 107.651 44.4243 108.985V108.986ZM35.5647 58.1785C38.0241 55.6119 40.062 52.7714 42.852 50.5922C42.505 50.3675 42.1807 50.2073 41.9182 49.9764C41.2204 49.3593 40.5087 49.3694 39.8172 49.9246C38.9453 50.625 38.0582 51.319 37.2796 52.1165C36.7244 52.6856 36.0934 53.3657 35.9319 54.0926C35.6379 55.4163 35.6695 56.8119 35.5647 58.1785ZM62.2696 108.039C64.4867 108.357 66.2672 107.645 67.8294 106.164C65.9921 105.275 65.0331 103.684 64.2066 101.9C63.4015 103.926 62.5636 105.895 62.2696 108.039ZM53.7495 104.449C53.2574 106.393 52.798 108.21 52.3425 110.011C54.3199 109.54 56.2896 109.071 58.3755 108.575C56.86 107.124 55.7546 105.382 53.7495 104.449ZM40.2639 117.718C41.9233 116.42 43.6205 115.101 45.3 113.761C45.4275 113.659 45.4994 113.405 45.4906 113.229C45.4174 111.905 44.5568 110.99 43.7681 110.05C43.6407 109.899 43.2937 109.709 43.2457 109.752C43.0552 109.928 42.8179 110.189 42.8192 110.417C42.8293 111.831 42.4886 113.156 41.898 114.42C41.3718 115.548 40.7939 116.652 40.2639 117.718ZM4.38399 87.5775C5.51462 88.2753 5.32282 88.4242 6.07994 87.1939C6.64273 86.2803 7.08691 85.2519 6.8888 84.1704C6.70204 83.1546 6.26796 82.1843 5.91464 81.1079C5.8263 82.3319 5.77204 83.4373 5.66226 84.5351C5.54996 85.6544 5.14868 86.6702 4.38525 87.5762L4.38399 87.5775ZM20.069 112.189C19.3989 113.041 18.744 113.871 18.074 114.722C19.1491 115.021 20.2444 115.326 21.3851 115.644C20.9245 114.436 20.4917 113.301 20.0677 112.19L20.069 112.189ZM14.3994 110.36C14.007 111.616 13.6663 112.706 13.3142 113.834C14.1761 114.026 14.9433 114.195 15.7496 114.374C15.3092 113.063 14.8865 111.809 14.3994 110.36ZM33.9874 117.7C33.9205 118.333 33.8536 118.963 33.7842 119.614C34.6044 119.687 35.3187 119.75 36.1439 119.823C35.3653 119.056 34.6928 118.395 33.9874 117.7ZM25.3045 116.923C26.0452 117.19 26.7253 117.436 27.4749 117.706C27.2377 117.004 27.032 116.4 26.8099 115.741C26.2749 116.161 25.8042 116.531 25.3045 116.923ZM12.0145 113.6C11.6839 113.176 11.4075 112.82 11.1072 112.436C10.9785 112.835 10.8612 113.196 10.7299 113.6H12.0145Z" fill="#131315"/>
<path d="M1.8224 87.0855C2.92905 87.835 3.95369 88.6451 5.08432 89.2622C6.30455 89.9297 7.6068 90.4609 8.90652 90.9657C9.70528 91.2761 10.1469 90.9329 10.1785 90.0849C10.2971 86.9757 10.0157 83.9106 8.87371 80.9906C8.53048 80.1111 7.92983 79.3325 7.38723 78.4063C8.22259 77.735 9.13113 76.9716 10.0763 76.2536C12.6871 74.2699 15.5603 72.7178 18.4412 71.1746C20.8577 69.8812 23.2729 68.5865 25.6742 67.264C27.4497 66.2861 29.2604 65.3561 30.9438 64.2356C32.5564 63.163 33.947 61.8368 35.1092 60.2153C36.5061 58.2657 38.149 56.4839 39.7768 54.7135C40.8721 53.5211 42.0873 52.4283 43.3202 51.3746C44.4584 50.4017 45.936 50.1039 47.3127 49.6118C48.6894 49.1184 50.051 48.5808 51.4176 48.0584C51.463 48.0408 51.4895 47.9751 51.5614 47.8868C49.8932 47.7581 48.4231 48.3689 46.8774 48.9064C46.8774 48.355 46.8963 47.9184 46.8748 47.483C46.7638 45.271 46.4937 43.0905 45.512 41.0652C45.3492 40.7295 45.1663 40.38 44.9126 40.1162C44.2047 39.3806 43.4804 38.978 42.1655 40.0582C42.0886 39.7705 42.0028 39.5219 41.9561 39.2657C41.7857 38.3168 41.6343 37.3641 41.4652 36.4152C41.3693 35.8789 41.5826 35.6 42.11 35.4688C44.3259 34.9186 46.5367 34.3445 48.75 33.7867C48.8661 33.7577 49.0011 33.7703 49.121 33.7943C49.9765 33.9722 50.292 33.7388 50.3147 32.8353C50.3563 31.2163 50.509 29.5847 50.3588 27.9821C50.2087 26.3745 50.962 25.5392 52.2416 24.8931C52.8939 24.5637 53.564 24.2218 54.1154 23.7549C54.5154 23.4167 54.7274 22.8602 55.0328 22.4072C56.8322 19.7358 59.1238 17.5503 61.7119 15.6587C64.6268 13.5287 67.8799 12.0372 71.2554 10.8485C73.0232 10.2264 74.9135 9.95383 76.7495 9.52606C77.5268 9.34435 77.9597 9.95636 78.4102 10.3589C80.197 11.9526 81.6102 13.8126 82.1617 16.2089C79.3338 16.9118 77.831 17.5048 77.5344 18.0904C78.0808 17.8695 78.5628 17.6197 79.0739 17.4783C80.1427 17.1831 81.2165 16.8853 82.3068 16.696C86.4508 15.978 90.6326 15.7748 94.8106 16.2241C96.7804 16.436 98.7401 16.9017 100.654 17.4342C103.173 18.1345 105.65 18.9901 108.128 19.8279C108.79 20.0513 109.39 20.4526 110.025 20.7743C108.686 21.9592 107.347 23.0798 106.085 24.2811C104.811 25.495 103.692 26.849 102.794 28.4478C103.365 28.502 103.661 28.2055 103.939 27.8269C105.762 25.3385 107.987 23.2716 110.535 21.5403C112.836 19.9756 115.373 18.9219 118.005 18.0689C118.94 17.7661 119.859 17.4127 120.804 17.1465C121.049 17.0783 121.445 17.1604 121.629 17.3294C125.047 20.4349 127.935 23.9744 130.169 28.0238C131.079 29.6718 131.911 31.3639 132.8 33.0245C133.036 33.4637 133.043 33.8397 132.761 34.2498C131.4 36.2322 130.081 38.2436 128.68 40.197C127.415 41.9611 126.463 43.8703 125.735 45.9044C125.28 47.1764 124.808 48.442 124.346 49.7115C124.312 49.8061 124.3 49.9083 124.324 50.0282C126.33 47.483 126.982 44.2186 128.846 41.4362C129.205 43.1485 129.087 44.6993 128.634 46.2111C128.113 47.9524 127.496 49.666 126.934 51.3961C126.866 51.6055 126.885 51.8415 126.847 52.2415C127.179 51.6825 127.417 51.2812 127.655 50.88C127.721 50.8673 127.79 50.856 127.856 50.8434C127.75 53.5198 128.34 55.8164 131.084 56.9319C130.191 57.6638 129.352 58.3502 128.513 59.0379C128.545 59.0884 128.578 59.1389 128.612 59.1894C130.019 58.0373 131.69 57.4379 133.404 57.0606C134.677 56.7805 136.028 56.6871 137.332 56.7527C139.402 56.8562 140.623 58.166 141.233 60.06C141.996 62.421 142.245 64.8375 141.631 67.264C140.78 70.6219 138.727 72.9639 135.363 73.9078C132.924 74.5917 130.456 74.174 128.034 73.5721C127.937 73.5481 127.837 73.5317 127.738 73.5166C127.726 73.5153 127.71 73.5406 127.615 73.6289C128.896 74.2396 130.294 74.2283 131.647 74.5892C131.079 75.2226 130.587 75.8056 130.052 76.3432C129.933 76.4618 129.66 76.434 129.454 76.4567C127.748 76.6498 126.03 76.7798 124.336 77.046C122.545 77.3274 120.772 77.7287 119.25 78.8152C117.751 78.8038 117.833 80.1578 117.457 81.0159C116.235 83.8071 115.355 86.7662 113.308 89.1322C111.312 91.4402 108.947 93.309 106.159 94.5292C104.21 95.3822 102.172 96.0826 100.113 96.6138C98.3148 97.0769 96.4359 97.246 94.5835 97.4782C89.0818 98.171 83.5611 98.1949 78.0253 97.9804C75.1937 97.8706 72.3481 97.9148 69.519 98.065C68.0073 98.1457 66.4994 98.5318 65.018 98.8978C60.185 100.09 55.7268 102.315 51.0819 104.03C47.4767 105.361 44.0937 107.142 40.8406 109.171C39.6191 109.933 38.5061 110.867 37.2897 111.638C36.6297 112.055 35.8701 112.328 35.1319 112.604C34.4631 112.855 33.8435 112.57 33.2921 112.218C31.4725 111.056 29.4888 110.272 27.4269 109.697C22.7467 108.391 18.0626 107.095 13.3622 105.867C11.3974 105.355 9.38224 105.037 7.39354 104.614C6.46607 104.417 5.65216 104.281 5.30263 103.038C4.95561 101.8 4.42689 100.609 4.26411 99.3104C4.09123 97.935 4.02309 96.5331 3.69375 95.1955C3.2155 93.2497 2.54671 91.3518 1.95237 89.435C1.90947 89.2975 1.82871 89.1675 1.74542 89.0477C1.27853 88.378 1.30503 87.7235 1.82492 87.0842L1.8224 87.0855ZM41.7188 67.1631C41.6065 67.1631 41.4677 67.2035 41.3882 67.1517C41.2456 67.0584 41.1598 66.8678 41.0109 66.7934C40.1037 66.3328 39.1396 66.1296 38.2676 66.2293C38.4531 66.2735 38.7787 66.3404 39.0992 66.4274C39.9775 66.6647 40.8532 66.9107 41.7277 67.1543L41.7201 67.1366L41.7176 67.1631H41.7188ZM76.7003 74.516C79.1054 74.5311 81.4374 74.0945 83.6721 73.2693C86.5366 72.2118 89.1411 70.6648 91.5184 68.7417C94.104 66.6495 95.9173 63.9945 96.9962 60.879C97.8215 58.4953 97.5413 56.0814 96.7817 53.7028C95.4554 49.5537 92.5431 47.2635 88.3575 46.4571C86.317 46.0634 84.2602 46.0874 82.2046 46.3246C79.749 46.6085 77.4183 47.2811 75.2366 48.4837C72.5866 49.9449 70.6181 52.1481 68.8351 54.4876C67.6086 56.0965 66.9158 58.0411 66.4704 60.0399C65.8546 62.7996 65.8293 65.558 66.4098 68.3278C66.7606 70.001 67.6956 71.2944 69.0622 72.2308C71.3513 73.798 73.9318 74.5034 76.6991 74.516H76.7003ZM39.6645 83.768C39.0929 83.8374 38.3951 83.8727 37.72 84.0128C33.6618 84.8608 30.2485 86.8924 27.326 89.7846C26.3493 90.7512 25.4244 91.7695 24.4817 92.7689C24.3833 92.8736 24.3164 93.0124 24.2508 93.1437C24.0212 93.6093 24.2761 94.0535 24.7985 94.0522C25.1303 94.0522 25.4685 94.003 25.7941 93.9286C28.1096 93.396 30.434 92.9645 32.8239 92.9443C35.6152 92.9203 38.3434 93.367 41.0766 93.868C41.8539 94.0106 42.7485 94.0182 43.4867 93.7746C46.5253 92.7664 47.4679 88.2249 45.2079 85.8413C43.724 84.2765 41.8375 83.8248 39.6671 83.768H39.6645ZM108.43 62.4563C110.468 62.7062 112.024 63.8204 113.533 65.1037C115.946 67.1568 116.545 71.7878 113.048 74.3393C110.993 75.8397 108.651 76.3457 106.218 76.5943C102.917 76.9312 99.6045 77.2139 96.5066 78.5149C95.5551 78.9149 94.6895 79.5243 93.8062 80.0733C93.6863 80.1477 93.6926 80.4253 93.6409 80.6096C93.8314 80.6398 94.022 80.6979 94.2112 80.6916C94.3248 80.6878 94.4371 80.5906 94.5469 80.5301C96.4258 79.5105 98.4372 78.8492 100.534 78.5098C102.73 78.1552 104.945 77.9218 107.153 77.6517C109.557 77.3577 111.818 76.7154 113.79 75.2163C116.878 72.8718 117.335 69.4042 115.909 66.3277C114.619 63.5453 111.8 62.4462 108.431 62.4551L108.43 62.4563ZM70.8995 33.3829C70.9096 33.422 70.9185 33.4624 70.9285 33.5015C72.1109 33.3804 73.3185 33.3703 74.4706 33.1141C77.0259 32.5476 79.5421 31.8056 82.0961 31.234C84.0999 30.7847 86.1227 30.3469 88.1606 30.145C92.6402 29.7008 96.0649 31.8497 99.0644 34.8946C99.3584 35.1937 99.66 35.4864 99.9591 35.7817C99.7433 35.2114 99.4694 34.6902 99.0934 34.2574C96.0485 30.7544 92.3437 28.7014 87.5549 29.2225C85.8892 29.4043 84.2274 29.6781 82.5882 30.0264C80.2399 30.5248 77.884 31.0043 75.6366 31.9078C74.7293 32.2725 73.7412 32.4327 72.7999 32.7166C72.1589 32.9097 71.533 33.1583 70.9008 33.3817L70.8995 33.3829ZM114.679 60.0701C114.684 60.185 114.689 60.2998 114.694 60.4146C112.989 61.014 111.286 61.6134 109.581 62.2128C110.371 62.0576 111.204 62.0853 112.014 61.9617C112.896 61.8267 113.773 61.5957 114.621 61.3169C115.084 61.1642 115.554 60.8815 115.539 60.2531C115.524 59.6449 115.084 59.3824 114.613 59.1868C113.441 58.6985 112.256 58.2379 110.965 57.7218C111.252 57.5931 111.45 57.4985 111.653 57.4127C112.289 57.1451 112.95 56.9243 113.552 56.5937C113.816 56.4486 114.13 56.0688 114.11 55.8214C114.089 55.5653 113.734 55.2435 113.451 55.1161C112.28 54.5861 111.013 54.4574 109.754 54.5406C108.933 54.5962 108.125 54.8675 107.32 55.0744C107.167 55.1135 107.051 55.3028 106.918 55.4227C108.006 55.4479 109.019 55.2536 110.029 55.2713C111.034 55.2889 112.079 55.3457 113.106 55.9136C111.899 56.4158 110.816 56.8486 109.751 57.3243C109.556 57.4114 109.275 57.7256 109.315 57.8341C109.389 58.0436 109.639 58.248 109.862 58.3338C110.388 58.537 110.952 58.643 111.482 58.8373C112.554 59.231 113.614 59.6575 114.679 60.0701ZM55.6852 23.1366L55.6322 23.3094C55.8732 23.3687 56.1142 23.4356 56.3578 23.4861C57.4594 23.7132 58.5257 24.0792 58.985 25.1959C59.4102 26.2307 59.7585 27.3222 59.9465 28.4225C60.214 29.9784 60.3036 31.5658 60.4639 33.0788C60.4942 32.993 60.5838 32.8403 60.6002 32.6801C60.7756 30.9513 61.0582 29.2213 60.6052 27.4913C60.238 26.0868 59.8077 24.7366 58.4247 23.9391C57.5616 23.4419 56.6758 23.1189 55.6865 23.1366H55.6852ZM66.9448 30.1753C71.0762 26.4856 75.5974 23.3385 80.3951 20.5813C75.4195 23.0785 70.9159 26.2445 66.9448 30.1753ZM72.545 19.5554C69.7714 20.609 67.2868 22.1523 64.9435 23.9378C67.4773 22.4766 70.0112 21.0166 72.545 19.5554ZM62.4223 36.7622C61.1036 37.4916 58.7452 42.1542 59.1869 43.0968C60.1232 40.8746 60.5156 38.4354 62.4223 36.7622ZM24.1234 75.4422C26.2118 73.8169 28.3002 72.1929 30.3128 70.6269C29.3929 70.8894 25.042 74.1967 24.1234 75.4422ZM52.7312 37.7565C52.5797 36.8997 52.3274 36.0732 51.6346 35.4461C52.0094 36.2347 52.3703 36.9956 52.7312 37.7565Z" fill="#6E6E78"/>
<path d="M11.2314 120.109C11.1343 119.376 11.0649 118.688 10.9425 118.009C10.892 117.729 10.8011 117.341 10.6005 117.225C9.96199 116.856 10.068 116.355 10.1424 115.778C10.3368 114.25 10.3961 114.177 11.8889 114.42C13.2151 114.636 14.5363 114.875 15.86 115.102C15.9016 115.109 15.966 115.094 15.9824 115.117C16.6676 116.046 17.6935 115.249 18.52 115.625C19.3705 116.013 20.303 116.24 21.2178 116.461C21.7832 116.597 22.2311 116.82 22.5302 117.324C22.6046 117.449 22.7144 117.553 22.8091 117.665C23.3003 118.24 23.8152 118.279 24.3536 117.782C24.4129 117.726 24.447 117.646 24.5113 117.548C25.6243 117.999 26.6969 118.41 27.7455 118.873C28.008 118.989 28.2515 119.239 28.4092 119.488C29.5247 121.242 30.8913 122.751 32.634 123.896C32.8573 124.042 33.2548 124.216 33.4024 124.119C33.6132 123.981 33.7595 123.609 33.7722 123.329C33.8138 122.448 33.7785 121.564 33.7759 120.68C33.7759 120.579 33.8012 120.478 33.8239 120.304C34.0927 120.346 34.3312 120.375 34.5659 120.42C36.2202 120.74 37.6625 120.4 39.1439 119.495C41.0746 118.317 42.5749 116.636 44.4349 115.397C45.7031 114.551 46.9057 113.608 48.1789 112.771C50.3771 111.326 52.8188 110.419 55.3778 109.909C57.9457 109.398 60.5465 109.043 63.1371 108.651C63.8803 108.539 64.64 108.545 65.3895 108.468C65.5851 108.448 65.7819 108.337 65.9573 108.233C69.4956 106.155 73.0162 104.045 76.5747 102.002C78.3148 101.003 80.118 100.113 81.9136 99.2135C82.2708 99.0343 82.72 98.9637 83.1263 98.9662C86.8942 98.9977 90.6483 98.792 94.3922 98.3756C98.0491 97.9693 101.662 97.3787 105.087 95.9352C108.849 94.349 112.103 92.0713 114.416 88.6832C115.441 87.1816 116.132 85.4415 116.893 83.772C117.436 82.5783 117.796 81.3026 118.327 80.1025C118.73 79.1927 119.635 78.7574 120.488 78.4091C123.579 77.151 126.817 76.6602 130.146 76.775C131.145 76.8091 131.505 77.1207 131.492 78.1479C131.476 79.4476 132.07 80.1871 133.265 80.5593C133.702 80.6956 134.121 80.8975 134.536 81.0969C135.605 81.6092 136.083 82.5354 136.223 83.6522C136.568 86.3942 136.173 89.0618 135.263 91.6474C134.772 93.0417 134.174 94.4033 133.549 95.7434C133.233 96.4235 132.594 96.7642 131.824 96.8462C130.171 97.0229 128.648 96.8046 127.418 95.544C127.087 95.2058 126.734 95.3282 126.45 95.6462C125.838 96.3314 125.207 97.0014 124.637 97.7207C123.702 98.9018 122.413 99.6148 121.192 100.421C120.711 100.738 120.243 101.072 119.563 101.542C120.374 98.0198 118.822 95.12 117.998 92.2505C118.255 94.4802 118.642 96.8677 118.773 99.269C118.872 101.079 118.368 102.85 117.661 104.526C116.605 107.033 114.559 108.257 112.003 108.815C108.554 109.567 105.078 109.568 101.591 109.221C98.5186 108.916 95.4535 108.544 92.3808 108.241C90.006 108.007 87.6387 108.078 85.2955 108.595C84.8071 108.703 84.2784 108.652 83.8014 108.789C80.4108 109.759 76.8826 109.976 73.449 110.72C68.6767 111.755 63.9081 112.799 59.2556 114.295C55.3804 115.541 51.6566 117.16 48.0262 118.996C45.4293 120.308 42.7895 121.541 40.2354 122.93C38.33 123.966 36.5142 125.173 34.6908 126.354C34.1495 126.705 33.6939 126.716 33.1248 126.489C30.9658 125.627 28.8256 124.699 26.6174 123.979C23.8135 123.065 20.9642 122.285 18.1124 121.531C16.2095 121.027 14.2687 120.664 12.3431 120.25C11.9974 120.176 11.6377 120.16 11.2289 120.111L11.2314 120.109ZM14.5867 117.547C15.4902 117.779 16.4026 117.985 17.2972 118.249C18.2083 118.518 19.1042 118.842 20.0065 119.142C19.9926 119.194 19.9787 119.246 19.9661 119.297C18.997 119.234 18.0266 119.171 17.0575 119.108C18.3913 119.393 19.7124 119.803 21.1283 119.588C20.7446 118.836 15.8057 117.271 14.588 117.547H14.5867Z" fill="#6E6E78"/>
<path d="M125.485 20.0572C130.81 18.3612 136.063 16.6552 141.496 15.5687C135.8 16.2337 130.112 16.934 124.777 19.4048C124.52 19.1486 124.212 18.8483 123.912 18.5404C123.606 18.2262 123.308 17.9044 122.977 17.5536C124.372 16.9441 125.768 16.2829 127.201 15.7189C129.811 14.693 132.405 13.6002 135.078 12.7686C137.35 12.062 139.709 11.5938 142.059 11.1824C145.146 10.6411 148.276 10.4846 151.411 10.6032C153.794 10.6928 156.146 11.002 158.395 11.8184C159.095 12.0733 159.708 12.568 160.339 13.1131C155.974 13.8955 151.838 15.1523 147.978 17.2558C152.165 15.9018 156.374 14.6463 160.793 14.0734C161.002 14.9302 160.624 15.5712 160.169 16.1794C159.351 17.2722 158.184 17.888 156.995 18.4685C153.777 20.0407 150.551 21.5954 147.338 23.1803C142.423 25.6056 138.031 28.7905 133.964 32.4436C133.86 32.537 133.737 32.6064 133.581 32.7162C133.05 31.684 132.539 30.6947 131.981 29.612C134.457 28.33 136.882 27.0719 139.309 25.815L139.274 25.7217C138.754 25.9311 138.224 26.1204 137.714 26.3526C135.883 27.1867 134.052 28.0246 132.235 28.889C131.822 29.0858 131.649 29.0391 131.429 28.6139C129.899 25.6636 127.995 22.9721 125.75 20.5203C125.658 20.4193 125.608 20.2792 125.48 20.0584L125.485 20.0572ZM139.192 21.425C139.224 21.4831 139.257 21.5411 139.29 21.5992L144.907 18.8571C142.906 19.5133 140.993 20.3537 139.192 21.4238V21.425Z" fill="#6E6E78"/>
<path d="M100.809 13.6357C99.9918 13.9398 99.1728 14.2389 98.3576 14.548C97.81 14.7562 97.2813 15.0275 96.7197 15.1827C96.1872 15.3304 95.6118 15.4805 95.0743 15.4263C92.1291 15.1297 89.1977 15.2181 86.2677 15.5928C85.209 15.7291 84.1478 15.8541 83.1925 15.9701C82.3786 14.4054 81.5761 12.8622 80.7609 11.2949C81.4827 10.6955 92.0647 7.01215 93.926 6.66892C93.2382 6.78754 92.5442 6.87965 91.8628 7.02982C90.5151 7.32509 89.1624 7.6128 87.8311 7.97496C85.2569 8.67782 82.6562 9.31001 80.2347 10.4861C80.0921 10.5555 79.8208 10.5265 79.6934 10.4318C79.2934 10.1327 78.9337 9.77943 78.4883 9.38446C79.4523 8.89486 80.3546 8.38759 81.2959 7.96865C84.3219 6.62223 87.3302 5.23166 90.4054 4.00765C93.1613 2.91108 96.0774 2.31422 99.0125 1.92178C101.381 1.60505 103.771 1.33375 106.156 1.29589C108.753 1.25425 111.378 1.39432 113.832 2.424C114.603 2.7483 115.178 3.35526 115.503 4.06948C113.413 4.76224 111.384 5.43608 109.355 6.10992C109.369 6.16418 109.383 6.21844 109.396 6.2727C111.461 5.71748 113.525 5.16352 115.663 4.5881C115.654 5.75155 115.147 6.60835 114.386 7.17493C113.119 8.11881 111.756 8.94533 110.382 9.73274C107.713 11.2634 105.004 12.7234 102.325 14.2351C101.323 14.8004 100.36 15.4351 99.3697 16.0219C99.222 16.109 99.0062 16.1556 98.8397 16.1241C98.2479 16.0105 97.6649 15.8553 96.938 15.6824C98.1986 14.789 99.5968 14.4117 100.869 13.7884C100.849 13.7366 100.83 13.6849 100.809 13.6332V13.6357ZM98.0207 9.5321C100.196 8.75605 102.372 7.98 104.547 7.20395C104.529 7.15474 104.513 7.10553 104.495 7.05632C102.197 7.48661 100.105 8.50115 98.0207 9.5321ZM94.3121 6.50236L94.3676 6.52002L94.3108 6.53643V6.5011L94.3121 6.50236Z" fill="#6E6E78"/>
<path d="M154.97 87.546C153.176 89.9713 151.121 92.1076 148.49 93.6584C145.309 95.5348 141.801 95.6888 138.262 95.6913C137.242 95.6913 136.222 95.5853 135.07 95.5197C135.308 94.9556 135.485 94.4951 135.701 94.0534C135.745 93.9638 135.928 93.8995 136.051 93.8957C136.885 93.8692 137.724 93.9032 138.554 93.8364C139.631 93.7493 140.701 93.5853 141.77 93.3291H136.038C136.49 91.6697 136.919 90.0924 137.329 88.587C139.17 88.8621 141.017 89.1372 142.864 89.4135C142.874 89.3605 142.884 89.3088 142.894 89.2558C142.099 89.0413 141.299 88.8432 140.509 88.6097C139.585 88.3372 138.668 88.0457 137.756 87.7352C137.624 87.6911 137.455 87.4993 137.453 87.3731C137.43 86.1175 137.439 84.862 137.439 83.585C142.708 86.8671 148.463 87.3794 154.422 86.8532C154.448 86.9251 154.473 86.9983 154.498 87.0702L150.654 89.2545L150.676 89.3517C151.116 89.1763 151.564 89.016 151.997 88.823C152.493 88.6021 152.975 88.3498 153.465 88.1138C153.934 87.8879 154.405 87.6658 154.874 87.4425C154.906 87.4766 154.938 87.5106 154.97 87.546ZM144.404 91.3177C144.403 91.3669 144.401 91.4148 144.399 91.4641C145.333 91.3379 146.267 91.2117 147.201 91.0855L147.156 90.8066C146.239 90.977 145.322 91.1473 144.404 91.3177ZM142.18 93.2218H142.128L142.133 93.2004L142.178 93.2218H142.18Z" fill="#6E6E78"/>
<path d="M157.59 67.6409C156.528 67.1084 155.641 66.6642 154.754 66.22L154.692 66.3525C155.516 66.8547 156.344 67.3494 157.158 67.8655C157.301 67.9564 157.504 68.1974 157.47 68.2693C157.393 68.4308 157.198 68.6075 157.027 68.639C156.641 68.7097 156.237 68.7311 155.843 68.7122C153.977 68.6188 152.112 68.48 150.244 68.4043C147.517 68.2933 144.9 68.8144 142.392 69.8832C142.284 69.9287 142.167 69.9501 141.93 70.0195C142.523 67.1059 143.164 64.273 142.422 61.3757C143.691 61.2836 146.707 62.1921 148.341 63.0149C148.168 62.8534 148.021 62.6401 147.818 62.5392C146.678 61.9738 145.542 61.3921 144.366 60.9113C143.86 60.7044 143.257 60.741 142.705 60.6363C142.524 60.6022 142.269 60.5151 142.205 60.3788C141.725 59.3668 141.286 58.3346 140.828 57.2974C141.757 57.5359 142.792 57.8059 143.83 58.0658C148.326 59.1952 151.88 61.9625 155.422 64.7436C156.353 65.4743 156.979 66.4459 157.588 67.6409H157.59ZM146.413 65.9841C146.399 66.0787 146.387 66.1733 146.373 66.2692C147.129 66.3954 147.883 66.5216 148.639 66.6478L148.677 66.4169C147.922 66.273 147.168 66.1279 146.414 65.9841H146.413Z" fill="#6E6E78"/>
<path d="M42.1104 110.454C42.1281 110.697 42.1849 110.868 42.1457 111.01C41.4732 113.442 40.6681 115.82 39.0643 117.826C38.6087 118.395 38.0813 118.91 37.5488 119.408C37.4264 119.523 37.0869 119.567 36.9494 119.481C35.6963 118.696 34.7007 117.64 33.7051 116.328C33.5512 116.67 33.3089 116.974 33.2887 117.294C33.1764 119.011 33.1183 120.732 33.0439 122.45C33.0351 122.667 33.0426 122.886 33.0426 123.103L32.8395 123.224C32.1581 122.604 31.4438 122.018 30.8003 121.36C29.2368 119.76 28.1933 117.85 27.5396 115.715C27.1964 114.593 27.0891 114.564 26.1894 115.285C25.3288 115.977 24.4783 116.681 23.4789 117.5C22.9212 116.554 22.2802 115.672 21.8574 114.694C21.3401 113.496 20.9249 112.239 20.6284 110.97C20.4984 110.412 20.7684 109.761 20.8757 109.034C23.2367 109.699 25.4475 110.321 27.6292 110.936C27.3327 112.075 27.0538 113.147 26.7749 114.218C26.8658 114.244 26.9554 114.27 27.0462 114.296C27.1333 113.963 27.2242 113.631 27.3049 113.297C27.3996 112.909 27.4576 112.511 27.5838 112.135C27.6999 111.791 27.8879 111.471 28.1087 111.001C29.6268 111.69 31.1296 112.208 32.4546 113.015C34.0395 113.981 35.5209 113.851 37.0478 113.089C38.5608 112.333 40.0409 111.509 41.5375 110.718C41.6978 110.633 41.8669 110.566 42.1091 110.455L42.1104 110.454Z" fill="#6E6E78"/>
<path d="M14.5306 109.149C13.9879 110.536 13.4453 111.924 12.8737 113.384C10.9948 111.511 10.114 109.044 8.996 106.725C8.90767 106.753 8.8206 106.782 8.73227 106.81C8.81303 107.274 8.81303 107.771 8.98969 108.195C9.44018 109.273 9.98405 110.31 10.4572 111.379C10.5733 111.642 10.6869 112.024 10.5822 112.249C9.94493 113.613 9.60927 115.051 9.39854 116.527C9.36952 116.732 9.31526 116.933 9.26983 117.149C6.789 115.182 4.26779 108.874 5.09936 105.24C7.6294 105.786 10.1721 106.28 12.6844 106.893C15.3886 107.551 18.0663 108.322 20.6885 109.027C20.5408 109.636 20.4765 110.244 20.2418 110.779C20.0134 111.302 19.6399 111.771 19.2802 112.224C18.6682 112.994 18.0247 113.74 17.3773 114.48C17.0808 114.821 16.8196 114.785 16.6215 114.349C15.9123 112.788 15.1981 111.232 14.9735 109.505C14.9558 109.37 14.8258 109.249 14.7476 109.121C14.6757 109.13 14.6025 109.139 14.5306 109.148V109.149Z" fill="#6E6E78"/>
<path d="M68.0916 106.041C67.3445 105.193 66.5193 104.432 65.9186 103.522C65.3634 102.682 64.9823 101.707 64.6441 100.748C64.3426 99.8945 64.4246 99.8415 65.2675 99.622C67.4922 99.0415 69.7572 98.7727 72.0526 98.7349C72.8021 98.7222 73.5529 98.7323 74.4135 98.7323C74.0286 99.3658 73.6488 99.8617 73.4091 100.417C73.0053 101.355 72.7024 102.335 72.3302 103.288C72.2368 103.527 72.0866 103.809 71.8797 103.93C70.6557 104.643 69.4077 105.314 68.0916 106.041Z" fill="#6E6E78"/>
<path d="M61.4481 108.198C60.7793 108.294 60.1408 108.4 59.4972 108.465C59.3723 108.478 59.1767 108.372 59.106 108.262C57.9641 106.465 56.4561 105.054 54.6239 103.982C54.5747 103.953 54.5431 103.891 54.4258 103.752C57.4946 102.442 60.4436 100.962 63.8494 100.086C63.0065 102.874 61.7004 105.357 61.4468 108.198H61.4481Z" fill="#6E6E78"/>
<path d="M44.4219 108.986C46.827 107.652 49.1362 106.372 51.5174 105.052C51.9249 105.945 52.1798 106.794 52.065 107.661C51.9502 108.524 51.6486 109.365 51.4151 110.21C51.3811 110.334 51.289 110.482 51.1817 110.538C49.6927 111.336 48.1974 112.121 46.7008 112.906C46.6112 112.952 46.5128 112.979 46.3702 113.034C45.9891 111.602 45.6812 110.155 44.4219 108.988V108.986Z" fill="#6E6E78"/>
<path d="M62.2695 108.039C62.5635 105.895 63.4014 103.926 64.2065 101.9C65.033 103.684 65.992 105.275 67.8293 106.164C66.2671 107.645 64.4866 108.358 62.2695 108.039Z" fill="#6E6E78"/>
<path d="M53.7468 104.449C55.7519 105.381 56.8573 107.123 58.3728 108.575C56.287 109.071 54.3172 109.54 52.3398 110.011C52.7954 108.21 53.2547 106.393 53.7468 104.449Z" fill="#6E6E78"/>
<path d="M40.2617 117.719C40.793 116.653 41.3696 115.548 41.8958 114.421C42.4864 113.158 42.8271 111.832 42.817 110.418C42.8157 110.19 43.0517 109.929 43.2435 109.753C43.2902 109.71 43.6385 109.9 43.7659 110.051C44.5559 110.992 45.4152 111.906 45.4884 113.23C45.4985 113.406 45.4253 113.661 45.2978 113.762C43.617 115.102 41.9211 116.422 40.2617 117.719Z" fill="#6E6E78"/>
<path d="M154.875 87.4437C154.942 87.4223 155.01 87.4008 155.077 87.3794C155.042 87.4349 155.006 87.4917 154.971 87.5472C154.939 87.5131 154.907 87.4791 154.875 87.4437Z" fill="#6E6E78"/>
<path d="M76.7008 74.5158C73.9336 74.5032 71.353 73.7991 69.064 72.2306C67.6974 71.2943 66.7624 69.9996 66.4116 68.3276C65.8298 65.5578 65.8563 62.7994 66.4721 60.0397C66.9176 58.0409 67.6116 56.0964 68.8369 54.4875C70.6199 52.148 72.5884 49.9448 75.2383 48.4835C77.4201 47.281 79.7495 46.6084 82.2064 46.3245C84.2619 46.0872 86.3188 46.0633 88.3592 46.457C92.5448 47.2633 95.4572 49.5536 96.7834 53.7026C97.5431 56.08 97.8232 58.4939 96.998 60.8788C95.9203 63.9957 94.107 66.6506 91.5202 68.7415C89.1428 70.6646 86.5383 72.2117 83.6739 73.2691C81.4379 74.0944 79.1059 74.531 76.7021 74.5158H76.7008ZM82.9622 71.9176C82.8373 71.9454 82.7124 71.9732 82.5887 72.0009C82.3843 72.0312 82.1799 72.0779 81.9742 72.088C79.5426 72.2155 77.2157 71.8306 75.0175 70.7264C72.355 69.3889 70.5984 67.303 69.8653 64.4247C68.9946 61.0088 69.5624 57.728 70.9921 54.5594C71.1953 54.1089 71.3947 53.6559 71.5953 53.2029C71.2761 53.3606 71.0868 53.5953 70.8975 53.8288C69.4249 55.6509 68.4735 57.7115 67.9372 59.993C67.3883 62.3338 67.3428 64.6985 67.5006 67.0696C67.6179 68.84 68.3296 70.3984 69.8716 71.3498C70.8899 71.9782 72.0521 72.3972 73.1878 72.806C75.1311 73.5051 77.1475 73.4962 79.1476 73.1202C80.6454 72.8388 82.1168 72.4249 83.6007 72.0703C84.4866 71.7309 85.3711 71.3915 86.2569 71.052L86.161 70.8022C85.8065 70.9283 85.4506 71.052 85.0973 71.1807C84.4714 71.4079 83.8455 71.6388 83.2196 71.8684C83.1338 71.8848 83.048 71.9 82.9622 71.9164V71.9176Z" fill="#131315"/>
<path d="M39.6651 83.7676C41.8355 83.8231 43.722 84.2761 45.2059 85.8408C47.4659 88.2245 46.5246 92.766 43.4847 93.7742C42.7478 94.019 41.8519 94.0101 41.0746 93.8676C38.3414 93.3666 35.6132 92.9199 32.822 92.9439C30.432 92.9641 28.1076 93.3969 25.7921 93.9281C25.4678 94.0026 25.1296 94.0518 24.7965 94.0518C24.2741 94.0531 24.0192 93.6089 24.2488 93.1432C24.3132 93.012 24.3801 92.8732 24.4798 92.7685C25.4224 91.7678 26.3473 90.7495 27.324 89.7842C30.2465 86.892 33.6599 84.8604 37.718 84.0124C38.3931 83.8711 39.0909 83.837 39.6626 83.7676H39.6651ZM25.4161 93.0145C26.1316 92.8555 26.8496 92.7079 27.56 92.53C27.7455 92.4833 27.9562 92.3861 28.0736 92.2448C28.3852 91.8688 28.6136 91.4208 28.9443 91.0649C31.2244 88.6144 33.9602 86.9336 37.2322 86.1285C39.0884 85.6717 40.9459 85.3083 42.8791 85.3979C42.3062 85.2023 41.7345 85.0042 41.1465 84.9209C38.0612 84.4894 35.3243 85.6175 32.663 86.9412C30.4749 88.0289 28.6035 89.5898 26.8344 91.2568C26.2855 91.7729 25.8767 92.4366 25.4035 93.0284L25.4236 93.0347L25.4135 93.0145H25.4161Z" fill="#131315"/>
<path d="M108.431 62.4561C111.8 62.4473 114.619 63.5476 115.909 66.3288C117.335 69.4052 116.878 72.8728 113.79 75.2174C111.818 76.7152 109.557 77.3575 107.153 77.6528C104.944 77.9228 102.729 78.1563 100.534 78.5108C98.437 78.849 96.4256 79.5115 94.5466 80.5311C94.4356 80.5904 94.3246 80.6888 94.211 80.6926C94.0217 80.6977 93.8312 80.6409 93.6406 80.6106C93.6924 80.4264 93.6861 80.1487 93.8059 80.0743C94.6892 79.5254 95.5549 78.9159 96.5063 78.5159C99.6042 77.2149 102.917 76.9322 106.218 76.5953C108.652 76.3467 110.994 75.8407 113.048 74.3404C116.545 71.7889 115.947 67.1566 113.533 65.1048C112.023 63.8214 110.468 62.7072 108.43 62.4574L108.431 62.4561Z" fill="#131315"/>
<path d="M70.8997 33.3825C71.5319 33.1592 72.1578 32.9118 72.7988 32.7175C73.7402 32.4336 74.7282 32.2733 75.6355 31.9087C77.8829 31.0052 80.2388 30.5257 82.5871 30.0272C84.2263 29.6789 85.8882 29.4051 87.5538 29.2234C92.3426 28.7023 96.0474 30.7553 99.0923 34.2583C99.4684 34.6911 99.7435 35.2122 99.958 35.7826C99.6602 35.4873 99.3586 35.1946 99.0633 34.8955C96.0639 31.8494 92.6391 29.7017 88.1595 30.1458C86.1216 30.3477 84.0988 30.7856 82.095 31.2348C79.541 31.8064 77.0248 32.5484 74.4695 33.115C73.3162 33.3712 72.1098 33.38 70.9275 33.5024C70.9174 33.4633 70.9085 33.4229 70.8984 33.3838L70.8997 33.3825Z" fill="#131315"/>
<path d="M114.678 60.0698C113.613 59.6572 112.553 59.2307 111.482 58.837C110.952 58.6427 110.388 58.5367 109.862 58.3335C109.639 58.2477 109.389 58.0433 109.314 57.8338C109.275 57.724 109.555 57.4111 109.751 57.324C110.816 56.8483 111.899 56.4155 113.106 55.9132C112.078 55.3454 111.034 55.2886 110.028 55.271C109.019 55.2533 108.006 55.4476 106.918 55.4224C107.05 55.3025 107.165 55.1132 107.319 55.0741C108.124 54.8672 108.933 54.5959 109.753 54.5403C111.013 54.4558 112.28 54.5858 113.451 55.1157C113.733 55.2432 114.089 55.565 114.109 55.8211C114.13 56.0684 113.815 56.4483 113.552 56.5934C112.95 56.924 112.288 57.1448 111.652 57.4123C111.449 57.4981 111.251 57.5928 110.965 57.7215C112.256 58.2376 113.439 58.6982 114.613 59.1865C115.084 59.3821 115.524 59.6446 115.539 60.2528C115.554 60.8812 115.084 61.1639 114.62 61.3166C113.771 61.5967 112.895 61.8263 112.013 61.9614C111.203 62.0863 110.37 62.0585 109.581 62.2125C111.285 61.6131 112.989 61.0137 114.694 60.4143C114.689 60.2995 114.683 60.1847 114.678 60.0698Z" fill="#131315"/>
<path d="M55.6832 23.1364C56.6725 23.1188 57.5583 23.4418 58.4214 23.939C59.8044 24.7352 60.2347 26.0854 60.6019 27.4911C61.0537 29.2212 60.771 30.9512 60.5969 32.6799C60.5805 32.8402 60.4909 32.9941 60.4606 33.0787C60.3016 31.5657 60.2107 29.9783 59.9432 28.4224C59.7539 27.322 59.4057 26.2305 58.9817 25.1958C58.5236 24.079 57.4574 23.7131 56.3545 23.486C56.1109 23.4355 55.8712 23.3686 55.6289 23.3093L55.6819 23.1364H55.6832Z" fill="#131315"/>
<path d="M66.9453 30.175C70.9164 26.2443 75.42 23.0783 80.3955 20.5811C75.5979 23.3382 71.0767 26.4853 66.9453 30.175Z" fill="#131315"/>
<path d="M72.5429 19.5552C70.0091 21.0164 67.4752 22.4764 64.9414 23.9376C67.2847 22.1521 69.7706 20.6088 72.5429 19.5552Z" fill="#131315"/>
<path d="M62.4187 36.7622C60.512 38.4354 60.1208 40.8746 59.1832 43.0968C58.7416 42.1542 61.0987 37.4916 62.4187 36.7622Z" fill="#131315"/>
<path d="M24.1211 75.4417C25.0397 74.1963 29.3907 70.8877 30.3106 70.6265C28.2979 72.1924 26.2095 73.8177 24.1211 75.4417Z" fill="#131315"/>
<path d="M41.7308 67.1516C40.8538 66.9093 39.9781 66.6633 39.1011 66.426C38.7806 66.339 38.455 66.2721 38.2695 66.2279C39.1415 66.1283 40.1055 66.3314 41.0128 66.792C41.1605 66.8664 41.2463 67.0583 41.3901 67.1504C41.4696 67.2021 41.6084 67.1605 41.7207 67.1617L41.7321 67.1504L41.7308 67.1516Z" fill="#131315"/>
<path d="M52.7294 37.7563C52.3685 36.9954 52.0076 36.2345 51.6328 35.4458C52.3256 36.0742 52.578 36.8995 52.7294 37.7563Z" fill="#131315"/>
<path d="M41.7188 67.1627L41.7213 67.1362C41.7213 67.1362 41.7288 67.1539 41.7301 67.1526L41.72 67.1627H41.7188Z" fill="#131315"/>
<path d="M14.5872 117.547C15.8049 117.272 20.7438 118.835 21.1275 119.587C19.7116 119.803 18.3905 119.393 17.0567 119.108C18.0258 119.171 18.9962 119.234 19.9653 119.297C19.9792 119.245 19.993 119.193 20.0057 119.142C19.1034 118.841 18.2088 118.517 17.2964 118.248C16.4018 117.985 15.4907 117.778 14.5859 117.547H14.5872Z" fill="#131315"/>
<path d="M139.191 21.425C140.993 20.3537 142.905 19.5133 144.906 18.8584L139.29 21.6004C139.257 21.5424 139.224 21.4843 139.191 21.4263V21.425Z" fill="#131315"/>
<path d="M98.0234 9.53194C100.109 8.50099 102.2 7.48645 104.498 7.05615C104.516 7.10537 104.532 7.15458 104.55 7.20379C102.374 7.97984 100.199 8.75589 98.0234 9.53194Z" fill="#131315"/>
<path d="M94.3125 6.50244V6.53777L94.368 6.52011L94.3125 6.50244Z" fill="#131315"/>
<path d="M144.403 91.3187C145.321 91.1483 146.238 90.978 147.156 90.8076L147.2 91.0865C146.266 91.2127 145.332 91.3389 144.398 91.4651C144.4 91.4158 144.402 91.3679 144.403 91.3187Z" fill="#131315"/>
<path d="M142.181 93.2231L142.135 93.2017L142.129 93.2231H142.181Z" fill="#131315"/>
<path d="M146.413 65.9844C147.167 66.1282 147.922 66.2733 148.675 66.4172L148.637 66.6481C147.882 66.5219 147.127 66.3957 146.371 66.2696C146.385 66.1749 146.398 66.0803 146.411 65.9844H146.413Z" fill="#131315"/>
<path d="M35.5664 58.1785C35.6711 56.8131 35.6409 55.4175 35.9336 54.0926C36.0951 53.3657 36.7261 52.6856 37.2813 52.1165C38.0586 51.319 38.9469 50.6237 39.8189 49.9246C40.5104 49.3694 41.2221 49.3593 41.9199 49.9764C42.1811 50.2073 42.5067 50.3663 42.8537 50.5921C40.0637 52.7714 38.0258 55.6118 35.5664 58.1785Z" fill="#131315"/>
<path d="M83.6015 72.073C82.1175 72.4276 80.6462 72.8427 79.1484 73.1229C77.1483 73.4989 75.1318 73.5065 73.1886 72.8087C72.0529 72.3998 70.8907 71.9809 69.8724 71.3525C68.3304 70.401 67.6199 68.8426 67.5013 67.0722C67.3436 64.7012 67.3878 62.3364 67.9379 59.9957C68.473 57.7142 69.4257 55.6536 70.8983 53.8315C71.0876 53.5967 71.2768 53.3633 71.5961 53.2056C71.3955 53.6573 71.1961 54.1103 70.9929 54.5621C69.5632 57.7306 68.9966 61.0115 69.8661 64.4273C70.5992 67.3057 72.3557 69.3915 75.0183 70.7291C77.2164 71.8332 79.5433 72.2181 81.9749 72.0907C82.1806 72.0793 82.385 72.0339 82.5895 72.0036C82.7144 71.9758 82.8393 71.9481 82.963 71.9203C83.0488 71.9039 83.1346 71.8888 83.2204 71.8724C83.3479 71.9405 83.474 72.0074 83.6015 72.0755V72.073Z" fill="#131315"/>
<path d="M83.5998 72.0727C83.4724 72.0045 83.3462 71.9376 83.2188 71.8695C83.8446 71.6398 84.4705 71.4102 85.0964 71.1818C85.4497 71.0531 85.8056 70.9294 86.1602 70.8032L86.2561 71.0531C85.3702 71.3925 84.4857 71.732 83.5998 72.0714V72.0727Z" fill="#131315"/>
<path d="M82.9634 71.9175C82.8384 71.9452 82.7135 71.973 82.5898 72.0008C82.7148 71.973 82.8397 71.9452 82.9634 71.9175Z" fill="#131315"/>
<path d="M20.068 112.189C20.492 113.3 20.9248 114.435 21.3854 115.642C20.2446 115.325 19.1493 115.02 18.0742 114.72C18.7443 113.87 19.3979 113.039 20.0692 112.188L20.068 112.189Z" fill="#131315"/>
<path d="M14.4016 110.36C14.8887 111.81 15.3102 113.065 15.7518 114.374C14.9455 114.195 14.1783 114.026 13.3164 113.834C13.6685 112.706 14.0092 111.616 14.4016 110.36Z" fill="#131315"/>
<path d="M33.9883 117.699C34.6937 118.395 35.3663 119.056 36.1448 119.823C35.3183 119.75 34.6054 119.685 33.7852 119.613C33.8546 118.962 33.9214 118.333 33.9883 117.699Z" fill="#131315"/>
<path d="M25.3047 116.923C25.8044 116.531 26.2751 116.161 26.8101 115.741C27.0334 116.399 27.2379 117.004 27.4751 117.705C26.7243 117.435 26.0441 117.189 25.3047 116.923Z" fill="#131315"/>
<path d="M12.015 113.599H10.7305C10.8617 113.196 10.9791 112.835 11.1078 112.436C11.4068 112.821 11.6844 113.175 12.015 113.599Z" fill="#131315"/>
<path d="M4.38407 87.5772C5.1475 86.6712 5.54878 85.6541 5.66108 84.5361C5.77087 83.437 5.82639 82.3329 5.91346 81.1089C6.26678 82.1853 6.70086 83.1556 6.88762 84.1714C7.08573 85.2516 6.64155 86.2813 6.07876 87.1949C5.32164 88.4252 5.51345 88.2763 4.38281 87.5785L4.38407 87.5772Z" fill="#131315"/>
<path d="M25.4062 93.0338C25.8795 92.4382 26.2896 91.7745 26.8372 91.2571C28.6063 89.5914 30.4777 88.0292 32.6658 86.9415C35.327 85.6178 38.064 84.491 41.1493 84.9213C41.7373 85.0033 42.3102 85.2014 42.8818 85.3983C40.9487 85.3087 39.0912 85.6733 37.235 86.1289C33.9617 86.9339 31.226 88.6147 28.947 91.0653C28.6164 91.4211 28.388 91.8704 28.0764 92.2451C27.959 92.3865 27.7483 92.4836 27.5628 92.5303C26.8523 92.707 26.1343 92.8559 25.4189 93.0149L25.4075 93.0325L25.4062 93.0338Z" fill="#131315"/>
<path d="M25.4163 93.0149L25.4264 93.0351C25.4264 93.0351 25.4062 93.0288 25.4062 93.0301C25.4062 93.0326 25.4176 93.0137 25.4176 93.0137L25.4163 93.0149Z" fill="#6E6E78"/>
</g>
<defs>
<clipPath id="clip0_1563_702">
<rect width="161.731" height="128" fill="white" transform="translate(0.132812)"/>
</clipPath>
</defs>
</svg>
