<svg width="20" height="20" viewBox="0 0 20 20" fill="none" xmlns="http://www.w3.org/2000/svg">
<g clip-path="url(#clip0_1328_2484)">
<path d="M15.8333 15H19.6167C19.3258 15.7712 18.8738 16.4715 18.2908 17.0542L17.0542 18.2917C16.4711 18.8739 15.7709 19.3256 15 19.6167V15.8333C15 15.6123 15.0878 15.4004 15.2441 15.2441C15.4004 15.0878 15.6123 15 15.8333 15ZM20 4.16667V12.9292C20 13.065 19.9892 13.1992 19.98 13.3333H15.8333C15.1703 13.3333 14.5344 13.5967 14.0656 14.0656C13.5967 14.5344 13.3333 15.1703 13.3333 15.8333V19.98C13.1992 19.9892 13.065 20 12.9292 20H4.16667C3.062 19.9987 2.00296 19.5593 1.22185 18.7782C0.440735 17.997 0.00132321 16.938 0 15.8333L0 4.16667C0.00132321 3.062 0.440735 2.00296 1.22185 1.22185C2.00296 0.440735 3.062 0.00132321 4.16667 0L15.8333 0C16.938 0.00132321 17.997 0.440735 18.7782 1.22185C19.5593 2.00296 19.9987 3.062 20 4.16667ZM5.83333 6.45833C5.83333 6.29257 5.76749 6.1336 5.65028 6.01639C5.53306 5.89918 5.37409 5.83333 5.20833 5.83333H4.58333C4.47283 5.83333 4.36685 5.87723 4.28871 5.95537C4.21057 6.03351 4.16667 6.13949 4.16667 6.25C4.16667 6.36051 4.21057 6.46649 4.28871 6.54463C4.36685 6.62277 4.47283 6.66667 4.58333 6.66667H4.79083V6.73667C4.7857 6.89949 4.71793 7.05406 4.60165 7.16816C4.48538 7.28226 4.32956 7.3471 4.16667 7.34917C4.08434 7.34995 4.00269 7.33428 3.9265 7.30309C3.85031 7.27189 3.78111 7.2258 3.72298 7.16751C3.66484 7.10921 3.61893 7.0399 3.58794 6.96362C3.55695 6.88735 3.5415 6.80566 3.5425 6.72333V5C3.54161 4.91775 3.55714 4.83614 3.58818 4.75997C3.61922 4.68379 3.66515 4.61457 3.72328 4.55637C3.7814 4.49817 3.85056 4.45214 3.92669 4.421C4.00283 4.38986 4.08441 4.37422 4.16667 4.375C4.28043 4.37847 4.39128 4.41178 4.48811 4.4716C4.58493 4.53142 4.66433 4.61565 4.71833 4.71583C4.75007 4.77657 4.79346 4.83046 4.84602 4.87443C4.89858 4.9184 4.95929 4.95158 5.02468 4.97209C5.09007 4.99259 5.15885 5.00002 5.22711 4.99394C5.29537 4.98787 5.36176 4.9684 5.4225 4.93667C5.48324 4.90493 5.53713 4.86154 5.5811 4.80898C5.62506 4.75642 5.65825 4.69571 5.67875 4.63032C5.69926 4.56493 5.70669 4.49614 5.70061 4.42789C5.69453 4.35963 5.67507 4.29324 5.64333 4.2325C5.50137 3.96321 5.28912 3.73741 5.02911 3.57909C4.76911 3.42077 4.47107 3.33584 4.16667 3.33333C3.94857 3.33235 3.73242 3.37437 3.53058 3.45699C3.32874 3.53962 3.14517 3.66123 2.99038 3.81487C2.83558 3.9685 2.71259 4.15115 2.62845 4.35236C2.5443 4.55358 2.50065 4.7694 2.5 4.9875V6.7375C2.50065 6.9556 2.5443 7.17142 2.62845 7.37264C2.71259 7.57385 2.83558 7.7565 2.99038 7.91013C3.14517 8.06377 3.32874 8.18538 3.53058 8.268C3.73242 8.35063 3.94857 8.39265 4.16667 8.39167C4.60668 8.39168 5.02884 8.21768 5.34107 7.90764C5.6533 7.5976 5.83025 7.17667 5.83333 6.73667V6.45833ZM8.33333 3.85417C8.33333 3.71603 8.27846 3.58356 8.18079 3.48588C8.08311 3.38821 7.95063 3.33333 7.8125 3.33333C7.67437 3.33333 7.54189 3.38821 7.44421 3.48588C7.34654 3.58356 7.29167 3.71603 7.29167 3.85417V7.87C7.29167 8.00813 7.34654 8.14061 7.44421 8.23828C7.54189 8.33596 7.67437 8.39083 7.8125 8.39083C7.95063 8.39083 8.08311 8.33596 8.18079 8.23828C8.27846 8.14061 8.33333 8.00813 8.33333 7.87V3.85417ZM10.8333 5.32333V4.375H11.99C12.1281 4.375 12.2606 4.32013 12.3583 4.22245C12.456 4.12478 12.5108 3.9923 12.5108 3.85417C12.5108 3.71603 12.456 3.58356 12.3583 3.48588C12.2606 3.38821 12.1281 3.33333 11.99 3.33333H10.3125C10.1744 3.33333 10.0419 3.38821 9.94421 3.48588C9.84654 3.58356 9.79167 3.71603 9.79167 3.85417V7.86333C9.79167 8.00147 9.84654 8.13394 9.94421 8.23162C10.0419 8.32929 10.1744 8.38417 10.3125 8.38417C10.4506 8.38417 10.5831 8.32929 10.6808 8.23162C10.7785 8.13394 10.8333 8.00147 10.8333 7.86333V6.36333H11.8658C12.004 6.36333 12.1364 6.30846 12.2341 6.21078C12.3318 6.11311 12.3867 5.98063 12.3867 5.8425C12.3867 5.70437 12.3318 5.57189 12.2341 5.47422C12.1364 5.37654 12.004 5.32167 11.8658 5.32167L10.8333 5.32333Z" fill="#6E6E78"/>
</g>
<defs>
<clipPath id="clip0_1328_2484">
<rect width="20" height="20" fill="white"/>
</clipPath>
</defs>
</svg>
