<svg width="20" height="20" viewBox="0 0 20 20" fill="none" xmlns="http://www.w3.org/2000/svg">
<g clip-path="url(#clip0_1422_355)">
<path d="M2.13095 0.0388107C1.20036 0.242134 0.453546 0.910751 0.129012 1.83743L0.0195312 2.15023V6.92049C0.0195312 11.4405 0.0234413 11.7025 0.089912 11.9253C0.367525 12.8247 1.0205 13.4855 1.93545 13.7865C2.20525 13.8765 2.24435 13.8765 4.15245 13.8921L6.09574 13.9038L6.10747 15.8471C6.12311 17.7552 6.12311 17.7943 6.21304 18.0641C6.5102 18.9673 7.14754 19.6047 8.05467 19.9057C8.25799 19.9761 8.52779 19.98 12.8836 19.9918C16.0155 19.9996 17.5834 19.9879 17.7672 19.9605C18.8659 19.7924 19.8004 18.8618 19.9764 17.7709C20.0038 17.6027 20.0194 15.9761 20.0194 13.028C20.0194 7.95665 20.035 8.2108 19.7183 7.56565C19.4094 6.93222 18.8425 6.44737 18.123 6.20495L17.8102 6.09938L15.8669 6.08765L13.9236 6.07592L13.9119 4.13263L13.8963 2.18933L13.7907 1.87653C13.6421 1.4347 13.4388 1.10234 13.0986 0.758259C12.8601 0.515837 12.7311 0.425905 12.4339 0.281233C11.7888 -0.0354805 12.0507 -0.0198402 6.91294 -0.0159302C3.30006 -0.0159302 2.31864 -0.00419998 2.13095 0.0388107ZM7.26093 3.03781C7.46425 3.12774 7.62066 3.27242 7.71059 3.45228C7.78097 3.60477 7.80052 3.71816 7.81225 4.11308L7.82789 4.5901L9.26287 4.60183L10.694 4.61356L10.8699 4.71131C10.9637 4.76605 11.0967 4.88727 11.1632 4.9772C11.2687 5.1336 11.2805 5.17661 11.2805 5.45031C11.2805 5.7162 11.2687 5.77485 11.1749 5.91561C11.1162 6.00163 10.9833 6.12284 10.8816 6.1854C10.7135 6.28315 10.6549 6.29488 10.2247 6.30661L9.75554 6.32225L9.66952 6.70544C9.51703 7.40924 9.18076 8.12869 8.71938 8.74648L8.4926 9.04364L8.65682 9.08665C8.87187 9.1453 9.32153 9.20786 9.5444 9.20786C9.78291 9.20786 10.1035 9.37209 10.2247 9.55586C10.5219 10.0094 10.3811 10.5646 9.90412 10.7953C9.7008 10.897 9.67343 10.9009 9.2355 10.8775C8.53952 10.8423 7.91 10.6898 7.30003 10.4082L6.95986 10.2518L6.65488 10.3926C6.03709 10.6819 5.39975 10.8384 4.68421 10.8775C4.17982 10.9048 3.98823 10.8501 3.77317 10.6116C3.59722 10.4161 3.55812 10.3144 3.55812 10.0485C3.55812 9.78264 3.59722 9.68098 3.77317 9.48548C3.94913 9.29388 4.14463 9.21959 4.57473 9.18831C4.88754 9.16876 5.33719 9.08665 5.3802 9.03973C5.39193 9.03191 5.28636 8.87551 5.15342 8.69565C4.72722 8.12869 4.38705 7.39751 4.22283 6.69762L4.13681 6.32225L3.68324 6.30661C3.31961 6.29097 3.19449 6.27142 3.06937 6.20886C2.76829 6.05246 2.60798 5.78658 2.60798 5.45422C2.60798 5.12187 2.76829 4.8599 3.06937 4.69958C3.22186 4.61747 3.2766 4.61356 4.66075 4.60183L6.09183 4.5901L6.10747 4.09353C6.1192 3.67515 6.13484 3.56958 6.20913 3.43273C6.29515 3.2646 6.47501 3.10428 6.64706 3.0339C6.78391 2.97916 7.1319 2.98307 7.26093 3.03781ZM13.431 9.82565C13.5952 9.90385 13.7203 10.0251 13.8024 10.1854C13.8376 10.2597 14.3538 11.5109 14.9403 12.9615L16.0116 15.6008V15.8979C16.0116 16.1599 15.9999 16.2108 15.9021 16.3515C15.5932 16.7973 14.8972 16.8403 14.561 16.4297C14.4984 16.3515 14.3811 16.1208 14.2951 15.9175L14.1465 15.5421H13.0595H11.9725L11.824 15.9136C11.7458 16.1169 11.6245 16.3476 11.562 16.4258C11.171 16.8989 10.389 16.7738 10.1505 16.199C10.0136 15.8745 10.0136 15.8784 11.1866 12.9693C11.7927 11.4679 12.3049 10.2088 12.3244 10.1658C12.516 9.79046 13.0361 9.63015 13.431 9.82565Z" fill="#6E6E78"/>
<path d="M5.91798 6.42808C6.00788 6.87365 6.45735 7.6788 6.8013 8.01102C6.95764 8.16345 6.96155 8.16345 7.04362 8.08919C7.21169 7.94067 7.50873 7.53419 7.66507 7.24496C7.80969 6.97527 8.01684 6.45153 8.01684 6.35382C8.01684 6.33037 7.64944 6.31474 6.95764 6.31474H5.89844L5.91798 6.42808Z" fill="#6E6E78"/>
<path d="M12.8768 13.3066C12.7869 13.5371 12.701 13.7559 12.6854 13.791C12.6619 13.8535 12.6971 13.8613 13.0604 13.8613C13.3651 13.8613 13.4549 13.8496 13.4432 13.8105C13.2479 13.2949 13.0838 12.8848 13.0643 12.8848C13.0526 12.8848 12.9666 13.0723 12.8768 13.3066Z" fill="#6E6E78"/>
</g>
<defs>
<clipPath id="clip0_1422_355">
<rect width="20" height="20" fill="white"/>
</clipPath>
</defs>
</svg>
