<svg width="20" height="20" viewBox="0 0 20 20" fill="none" xmlns="http://www.w3.org/2000/svg">
<g clip-path="url(#clip0_1325_179)">
<path d="M5.83328 9.99966C5.83344 9.18323 6.07495 8.38506 6.52745 7.70549L2.37078 3.54883C0.840303 5.34979 0 7.63623 0 9.99966C0 12.3631 0.840303 14.6495 2.37078 16.4505L6.52745 12.2938C6.07495 11.6143 5.83344 10.8161 5.83328 9.99966Z" fill="#6E6E78"/>
<path d="M17.6293 3.54883L13.4727 7.70549C13.9253 8.385 14.1668 9.18321 14.1668 9.99966C14.1668 10.8161 13.9253 11.6143 13.4727 12.2938L17.6293 16.4505C19.1598 14.6495 20.0001 12.3631 20.0001 9.99966C20.0001 7.63623 19.1598 5.34979 17.6293 3.54883Z" fill="#6E6E78"/>
<path d="M10.0016 14.1668C9.18518 14.1667 8.38701 13.9252 7.70745 13.4727L3.55078 17.6293C5.35174 19.1598 7.63818 20.0001 10.0016 20.0001C12.365 20.0001 14.6515 19.1598 16.4524 17.6293L12.2958 13.4727C11.6162 13.9252 10.818 14.1667 10.0016 14.1668Z" fill="#6E6E78"/>
<path d="M10.0016 5.83328C10.818 5.83344 11.6162 6.07495 12.2958 6.52745L16.4524 2.37078C14.6515 0.840303 12.365 0 10.0016 0C7.63818 0 5.35174 0.840303 3.55078 2.37078L7.70745 6.52745C8.38701 6.07495 9.18518 5.83344 10.0016 5.83328Z" fill="#6E6E78"/>
</g>
<defs>
<clipPath id="clip0_1325_179">
<rect width="20" height="20" fill="white"/>
</clipPath>
</defs>
</svg>
