<svg width="36" height="36" viewBox="0 0 36 36" fill="none" xmlns="http://www.w3.org/2000/svg">
<path d="M19.9393 27.8787L11.5603 19.4997C11.2791 19.2184 11.1211 18.837 11.1211 18.4392C11.1211 18.0415 11.2791 17.66 11.5603 17.3787L19.9393 8.99973C20.1491 8.79001 20.4163 8.6472 20.7072 8.58935C20.9982 8.5315 21.2997 8.56121 21.5738 8.67471C21.8478 8.78822 22.082 8.98043 22.2469 9.22704C22.4117 9.47365 22.4997 9.7636 22.4998 10.0602V26.8182C22.4997 27.1149 22.4117 27.4048 22.2469 27.6514C22.082 27.898 21.8478 28.0902 21.5738 28.2037C21.2997 28.3172 20.9982 28.347 20.7072 28.2891C20.4163 28.2313 20.1491 28.0884 19.9393 27.8787Z" fill="#6E6E78"/>
</svg>
