<svg width="20" height="20" viewBox="0 0 20 20" fill="none" xmlns="http://www.w3.org/2000/svg">
<path d="M4.16593 18.3337C4.60796 18.3337 5.03188 18.1581 5.34445 17.8455C5.65701 17.5329 5.8326 17.109 5.8326 16.667V11.667C5.8326 11.225 5.65701 10.801 5.34445 10.4885C5.03188 10.1759 4.60796 10.0003 4.16593 10.0003V9.16699C4.16593 7.6199 4.78052 6.13616 5.87448 5.0422C6.96844 3.94824 8.45217 3.33366 9.99927 3.33366C11.5464 3.33366 13.0301 3.94824 14.1241 5.0422C15.218 6.13616 15.8326 7.6199 15.8326 9.16699V10.0003C15.3906 10.0003 14.9667 10.1759 14.6541 10.4885C14.3415 10.801 14.1659 11.225 14.1659 11.667V16.667H11.6659C11.4449 16.667 11.233 16.7548 11.0767 16.9111C10.9204 17.0674 10.8326 17.2793 10.8326 17.5003C10.8326 17.7213 10.9204 17.9333 11.0767 18.0896C11.233 18.2459 11.4449 18.3337 11.6659 18.3337H15.8326C16.7876 18.3308 17.7127 18 18.4529 17.3965C19.1931 16.7931 19.7036 15.9537 19.8988 15.0189C20.094 14.084 19.9622 13.1105 19.5254 12.2612C19.0886 11.412 18.3733 10.7385 17.4993 10.3537V9.16699C17.4993 7.17787 16.7091 5.27021 15.3026 3.86369C13.896 2.45717 11.9884 1.66699 9.99927 1.66699C8.01014 1.66699 6.10249 2.45717 4.69597 3.86369C3.28944 5.27021 2.49927 7.17787 2.49927 9.16699V10.3537C1.62523 10.7385 0.909934 11.412 0.473118 12.2612C0.0363026 13.1105 -0.0955155 14.084 0.0997317 15.0189C0.294979 15.9537 0.80544 16.7931 1.54566 17.3965C2.28588 18 3.21092 18.3308 4.16593 18.3337Z" fill="#44CE6B"/>
</svg>
