<svg width="20" height="20" viewBox="0 0 20 20" fill="none" xmlns="http://www.w3.org/2000/svg">
<g clip-path="url(#clip0_1325_73)">
<path d="M19.9533 10.558L17.4275 3.34129C17.0775 2.33962 16.1283 1.66629 15.0675 1.66629H10.8333V0.833789C10.8283 -0.256211 9.17083 -0.255378 9.16667 0.833789V1.66712H4.9325C3.87167 1.66712 2.9225 2.34046 2.5725 3.34129L0.0466667 10.558C0.0158333 10.6463 0 11.0846 0 11.0846C0 13.173 1.55917 14.8905 3.55 14.9946C4.58417 15.0521 5.57833 14.6855 6.33167 13.9705C7.075 13.2655 7.5 12.2738 7.5 11.2505C7.5 11.2505 7.4825 10.6405 7.44917 10.5488L4.82833 3.34046C4.8625 3.33629 4.8975 3.33379 4.9325 3.33379H9.16667V18.3338H4.16667C3.07667 18.3388 3.0775 19.9963 4.16667 20.0005H15.8333C16.9233 19.9955 16.9225 18.338 15.8333 18.3338H10.8333V3.33379H15.0675C15.1025 3.33379 15.1375 3.33546 15.1717 3.34046L12.55 10.5488C12.5167 10.6396 12.4992 11.2505 12.4992 11.2505C12.4992 12.2746 12.925 13.2655 13.6675 13.9705C16.0083 16.2213 20.0408 14.5971 19.9992 11.0855C19.9992 11.0855 19.9833 10.6471 19.9525 10.5588L19.9533 10.558ZM5.47667 10.0005H2.0075L3.70917 5.13962L5.47667 10.0005ZM16.2908 5.13962L17.9925 10.0005H14.5233L16.2908 5.13962Z" fill="#6E6E78"/>
</g>
<defs>
<clipPath id="clip0_1325_73">
<rect width="20" height="20" fill="white"/>
</clipPath>
</defs>
</svg>
