<svg width="20" height="20" viewBox="0 0 20 20" fill="none" xmlns="http://www.w3.org/2000/svg">
<g clip-path="url(#clip0_1325_63)">
<path d="M17.9395 6.90327L11.6153 0.732433C11.0662 0.182433 10.2762 -0.0867336 9.50865 0.0232664L3.76865 0.808266C3.31282 0.870766 2.99365 1.29077 3.05615 1.7466C3.11865 2.20243 3.53782 2.52077 3.99532 2.4591L9.73615 1.6741C9.99115 1.6391 10.2545 1.7266 10.4453 1.91743L16.7703 8.08827C17.6411 8.9591 17.7262 10.3216 17.0395 11.2941C16.8445 10.9049 16.6037 10.5341 16.2803 10.2108L10.0512 4.0341C9.50282 3.48577 8.72032 3.2216 7.94448 3.32493L2.20365 4.10993C1.82532 4.1616 1.53032 4.4641 1.48865 4.8441L0.851151 10.6074C0.767817 11.3666 1.02948 12.1108 1.57115 12.6516L7.75115 18.7791C8.53782 19.5666 9.58365 19.9991 10.6961 19.9991H10.7103C11.8287 19.9958 12.877 19.5558 13.6628 18.7599L16.302 16.0866C17.0745 15.3041 17.4628 14.2874 17.4878 13.2633L17.9687 12.7833C19.5728 11.1583 19.5637 8.52327 17.942 6.90243L17.9395 6.90327ZM5.00115 8.33327C4.54115 8.33327 4.16782 7.95993 4.16782 7.49993C4.17282 6.40993 5.82948 6.41077 5.83448 7.49993C5.83448 7.95993 5.46115 8.33327 5.00115 8.33327Z" fill="#6E6E78"/>
</g>
<defs>
<clipPath id="clip0_1325_63">
<rect width="20" height="20" fill="white"/>
</clipPath>
</defs>
</svg>
