<svg width="20" height="20" viewBox="0 0 20 20" fill="none" xmlns="http://www.w3.org/2000/svg">
<g clip-path="url(#clip0_1561_698)">
<path d="M0.464844 4.0625C0.285156 4.11328 0.160156 4.22265 0.078125 4.39062C0.00390625 4.55078 0 4.62109 0 6.26172C0 8.13672 0 8.13672 0.230469 8.33203C0.367188 8.44531 0.382812 8.44922 0.804688 8.50781C1.66406 8.625 2.26953 9.42578 2.11719 10.2422C1.99219 10.9141 1.5 11.3828 0.816406 11.4883C0.65625 11.5117 0.488281 11.5391 0.441406 11.5469C0.316406 11.5703 0.113281 11.7539 0.0546875 11.9023C0.0117188 12.0039 0 12.3828 0 13.7383C0 15.3594 0.00390625 15.4531 0.078125 15.6016C0.121094 15.6914 0.21875 15.8047 0.300781 15.8594L0.445312 15.957L3.21094 15.9687L5.97656 15.9805V10V4.02344L3.27344 4.02734C1.78516 4.02734 0.519531 4.04297 0.464844 4.0625Z" fill="#EDEAE5"/>
<path d="M7.24756 4.07031C7.23584 4.09766 7.23193 6.78516 7.23584 10.0391L7.24756 15.957H13.3999H19.5522L19.6968 15.8672C19.7788 15.8164 19.8726 15.7109 19.9194 15.6094C19.9976 15.4492 20.0015 15.3828 20.0015 13.7383C20.0015 12.3828 19.9897 12.0039 19.9468 11.9023C19.8882 11.7539 19.6851 11.5703 19.5601 11.5469C19.5132 11.5391 19.3452 11.5117 19.189 11.4883C18.5054 11.3828 18.0093 10.9102 17.8843 10.2422C17.728 9.39453 18.3843 8.57422 19.2905 8.49219C19.5991 8.46094 19.7554 8.38672 19.8999 8.19141C19.978 8.08203 19.9819 8.03516 19.9937 6.32031C20.0054 4.60156 20.0015 4.55859 19.9233 4.39062C19.8726 4.28906 19.7827 4.18359 19.6968 4.13281L19.5522 4.04297L13.4077 4.03125C8.48975 4.02344 7.26318 4.03125 7.24756 4.07031Z" fill="#EDEAE5"/>
</g>
<defs>
<clipPath id="clip0_1561_698">
<rect width="20" height="20" fill="white"/>
</clipPath>
</defs>
</svg>
