<svg width="20" height="20" viewBox="0 0 20 20" fill="none" xmlns="http://www.w3.org/2000/svg">
<g clip-path="url(#clip0_1328_2476)">
<path d="M19.7634 7.9575C18.9726 6.20978 17.7262 4.70693 16.155 3.60644C14.5837 2.50595 12.7454 1.84833 10.8326 1.7025V0.833333C10.8326 0.61232 10.7448 0.400358 10.5885 0.244078C10.4322 0.0877974 10.2203 0 9.99926 0C9.77825 0 9.56629 0.0877974 9.41001 0.244078C9.25373 0.400358 9.16593 0.61232 9.16593 0.833333V1.7025C7.25104 1.8468 5.41026 2.50366 3.83658 3.60419C2.26291 4.70471 1.01433 6.20837 0.22176 7.9575C0.0225499 8.45749 -0.0508553 8.99875 0.00799081 9.53374C0.0668369 10.0687 0.256134 10.5811 0.55926 11.0258C0.865595 11.4797 1.27866 11.8515 1.7622 12.1086C2.24574 12.3656 2.78498 12.5 3.33259 12.5H9.16593V17.5C9.16593 17.721 9.07813 17.933 8.92185 18.0893C8.76557 18.2455 8.55361 18.3333 8.33259 18.3333C8.11158 18.3333 7.89962 18.2455 7.74334 18.0893C7.58706 17.933 7.49926 17.721 7.49926 17.5C7.49926 17.279 7.41146 17.067 7.25518 16.9107C7.0989 16.7545 6.88694 16.6667 6.66593 16.6667C6.44491 16.6667 6.23295 16.7545 6.07667 16.9107C5.92039 17.067 5.83259 17.279 5.83259 17.5C5.83259 18.163 6.09599 18.7989 6.56483 19.2678C7.03367 19.7366 7.66955 20 8.33259 20C8.99564 20 9.63152 19.7366 10.1004 19.2678C10.5692 18.7989 10.8326 18.163 10.8326 17.5V12.5H16.6518C17.1995 12.5 17.7388 12.3656 18.2225 12.1086C18.7062 11.8515 19.1194 11.4798 19.4259 11.0258C19.7289 10.581 19.918 10.0687 19.9769 9.53371C20.0357 8.99875 19.9624 8.45754 19.7634 7.9575Z" fill="#6E6E78"/>
</g>
<defs>
<clipPath id="clip0_1328_2476">
<rect width="20" height="20" fill="white"/>
</clipPath>
</defs>
</svg>
