<svg width="36" height="36" viewBox="0 0 36 36" fill="none" xmlns="http://www.w3.org/2000/svg">
<path d="M16.0607 8.12127L24.4397 16.5003C24.7209 16.7816 24.8789 17.163 24.8789 17.5608C24.8789 17.9585 24.7209 18.34 24.4397 18.6213L16.0607 27.0003C15.8509 27.21 15.5837 27.3528 15.2928 27.4106C15.0018 27.4685 14.7003 27.4388 14.4262 27.3253C14.1522 27.2118 13.918 27.0196 13.7531 26.773C13.5883 26.5263 13.5003 26.2364 13.5002 25.9398L13.5002 9.18177C13.5003 8.88515 13.5883 8.5952 13.7531 8.34858C13.918 8.10197 14.1522 7.90976 14.4262 7.79625C14.7003 7.68275 15.0018 7.65305 15.2928 7.7109C15.5837 7.76875 15.8509 7.91156 16.0607 8.12127Z" fill="#6E6E78"/>
</svg>
