<svg width="20" height="20" viewBox="0 0 20 20" fill="none" xmlns="http://www.w3.org/2000/svg">
<g clip-path="url(#clip0_1523_91)">
<path d="M0.144919 3.08957C-0.178414 2.20457 0.0649195 1.22457 0.765753 0.59374C1.46492 -0.0345939 2.46075 -0.176261 3.30575 0.234573L18.3808 7.27124C19.1891 7.64957 19.7674 8.34041 20.0016 9.16541H3.37492L0.192419 3.19541C0.174919 3.16124 0.159086 3.12541 0.144919 3.08957ZM3.38659 10.8329L0.259086 16.8121C0.241586 16.8454 0.226586 16.8787 0.214086 16.9137C-0.108414 17.7996 0.137419 18.7779 0.838253 19.4079C1.27242 19.7971 1.82075 19.9979 2.37242 19.9979C2.71325 19.9979 3.05492 19.9212 3.37325 19.7654L18.3824 12.7337C19.1933 12.3537 19.7708 11.6604 20.0033 10.8337H3.38659V10.8329Z" fill="#0A0A0B"/>
</g>
<defs>
<clipPath id="clip0_1523_91">
<rect width="20" height="20" fill="white"/>
</clipPath>
</defs>
</svg>
