<svg width="20" height="20" viewBox="0 0 20 20" fill="none" xmlns="http://www.w3.org/2000/svg">
<g clip-path="url(#clip0_1323_50)">
<path d="M13.5433 5.27833C12.3113 3.85647 11.6436 2.03208 11.6667 0.150834C13.4319 0.44741 15.0846 1.21431 16.4508 2.37083L13.5433 5.27833ZM6.46 12.3617L8.82167 10L2.37083 3.54917C0.8397 5.34974 -0.00071212 7.63643 4.52762e-07 10H0.269167C2.54626 10.0333 4.73824 10.8707 6.4575 12.3642L6.46 12.3617ZM17.6292 3.54917L14.7217 6.45667C16.1553 7.66852 17.9719 8.33339 19.8492 8.33333C19.5526 6.56807 18.7857 4.91539 17.6292 3.54917ZM12.3642 6.4575C10.8709 4.73813 10.0335 2.54622 10 0.269167V4.52762e-07C7.63643 -0.00071212 5.34974 0.8397 3.54917 2.37083L10 8.82167L12.3642 6.4575ZM19.7308 10C17.4538 9.96656 15.2618 9.12916 13.5425 7.63583L11.1783 10L17.6292 16.4508C19.1603 14.6503 20.0007 12.3636 20 10H19.7308ZM7.63583 13.5425C9.10264 15.2682 9.93665 17.4427 10 19.7067V20C12.3636 20.0007 14.6503 19.1603 16.4508 17.6292L10 11.1783L7.63583 13.5425ZM6.455 14.7233L3.54917 17.6292C4.91539 18.7857 6.56807 19.5526 8.33333 19.8492C8.33513 17.9718 7.66937 16.155 6.455 14.7233ZM0.150834 11.6667C0.44741 13.4319 1.21431 15.0846 2.37083 16.4508L5.27833 13.5433C3.84759 12.3264 2.02909 11.6609 0.150834 11.6667Z" fill="#6E6E78"/>
</g>
<defs>
<clipPath id="clip0_1323_50">
<rect width="20" height="20" fill="white"/>
</clipPath>
</defs>
</svg>
