<svg width="20" height="20" viewBox="0 0 20 20" fill="none" xmlns="http://www.w3.org/2000/svg">
<path d="M16.5742 2.57031C16.1836 2.70703 15.9102 2.96484 15.7305 3.34766L15.6445 3.53516V10V16.4648L15.75 16.6875C15.8828 16.9727 16.1523 17.2422 16.4375 17.375C16.6562 17.4805 16.6719 17.4805 17.5 17.4805H18.3398L18.6016 17.3516C18.9023 17.207 19.1016 17 19.2539 16.6797L19.3555 16.4648V10V3.53516L19.25 3.3125C19.1172 3.02734 18.8477 2.75781 18.5625 2.625C18.3477 2.52344 18.3125 2.51953 17.5586 2.50781C16.8828 2.5 16.75 2.50781 16.5742 2.57031Z" fill="#EDEAE5"/>
<path d="M6.57422 6.32031C6.18359 6.45703 5.91016 6.71484 5.73047 7.09766L5.64453 7.28516V11.875V16.4648L5.75 16.6875C5.88281 16.9727 6.15234 17.2422 6.4375 17.375C6.65625 17.4805 6.67188 17.4805 7.5 17.4805H8.33984L8.60156 17.3516C8.90234 17.207 9.10156 17 9.25391 16.6797L9.35547 16.4648V11.875V7.28516L9.25391 7.07031C9.10156 6.75 8.90234 6.54297 8.60156 6.39844L8.34375 6.26953L7.55859 6.25781C6.88281 6.25 6.75 6.25781 6.57422 6.32031Z" fill="#EDEAE5"/>
<path d="M11.5742 8.82031C11.1836 8.95703 10.9102 9.21484 10.7305 9.59766L10.6445 9.78516V13.125V16.4648L10.75 16.6875C10.8828 16.9727 11.1523 17.2422 11.4375 17.375C11.6562 17.4805 11.6719 17.4805 12.5 17.4805H13.3398L13.6016 17.3516C13.9023 17.207 14.1016 17 14.2539 16.6797L14.3555 16.4648V13.125V9.78516L14.25 9.5625C14.1172 9.27734 13.8477 9.00781 13.5625 8.875C13.3477 8.77344 13.3125 8.76953 12.5586 8.75781C11.8828 8.75 11.75 8.75781 11.5742 8.82031Z" fill="#EDEAE5"/>
<path d="M1.57422 11.3203C1.18359 11.457 0.910156 11.7148 0.730469 12.0977C0.644531 12.2852 0.644531 12.2969 0.644531 14.375V16.4648L0.75 16.6875C0.882812 16.9727 1.15234 17.2422 1.4375 17.375C1.65625 17.4805 1.67188 17.4805 2.5 17.4805H3.33984L3.60156 17.3516C3.90234 17.207 4.10156 17 4.25391 16.6797L4.35547 16.4648V14.375V12.2852L4.25 12.0625C4.11719 11.7773 3.84766 11.5078 3.5625 11.375C3.34766 11.2734 3.3125 11.2695 2.55859 11.2578C1.88281 11.25 1.75 11.2578 1.57422 11.3203Z" fill="#EDEAE5"/>
</svg>
