<svg width="20" height="20" viewBox="0 0 20 20" fill="none" xmlns="http://www.w3.org/2000/svg">
<path d="M9.11885 0.0588205C8.05245 0.222883 7.09932 0.730696 6.35323 1.52366C5.53292 2.39476 5.10714 3.40257 5.04854 4.6096C4.96651 6.2971 5.79464 7.91038 7.22432 8.84398C7.92745 9.30491 8.60323 9.53929 9.42354 9.6057C10.9431 9.72288 12.2399 9.24632 13.2868 8.17991C14.1189 7.33616 14.5407 6.41429 14.6423 5.23851C14.7829 3.6682 14.1892 2.20726 13.0056 1.18382C12.2399 0.527571 11.5368 0.199446 10.5642 0.0588205C10.0954 -0.00758572 9.54854 -0.011492 9.11885 0.0588205Z" fill="#6E6E78"/>
<path d="M5.57363 9.69152C3.80801 9.87902 2.58144 11.1446 2.01113 13.379C1.63223 14.8673 1.53457 16.6564 1.77676 17.6368C1.97598 18.422 2.62832 19.2189 3.38223 19.6017C3.72207 19.7735 4.21035 19.9142 4.62051 19.961C4.86269 19.9923 6.70644 20.0001 10.2338 19.9923L15.4877 19.9806L15.8197 19.8868C17.0541 19.5509 17.8979 18.7228 18.2064 17.5587C18.3666 16.9532 18.3471 15.5079 18.1596 14.3673C17.7494 11.8282 16.7104 10.3048 15.0658 9.82824C14.6908 9.71886 14.0189 9.63683 13.8197 9.67589C13.6283 9.71105 13.3627 9.85167 12.7611 10.2384C12.1205 10.6525 12.0307 10.6993 11.5502 10.879C10.9955 11.086 10.5385 11.1759 10.0033 11.1759C9.45644 11.1759 9.03457 11.0978 8.47988 10.9025C7.95644 10.715 7.93301 10.7032 7.11269 10.1837C6.68301 9.91027 6.36269 9.73449 6.23769 9.69933C6.01894 9.64464 6.01894 9.64464 5.57363 9.69152Z" fill="#6E6E78"/>
</svg>
