<svg width="20" height="20" viewBox="0 0 20 20" fill="none" xmlns="http://www.w3.org/2000/svg">
<g clip-path="url(#clip0_1325_65)">
<path d="M3.34161 6.56735C4.62813 4.96192 6.44554 3.86852 8.46661 3.48402C8.19292 3.18612 8.01189 2.81498 7.9456 2.41591C7.87932 2.01684 7.93065 1.60711 8.09333 1.23673C8.25602 0.866344 8.52302 0.551338 8.86174 0.330163C9.20045 0.108988 9.59624 -0.00878906 10.0008 -0.00878906C10.4053 -0.00878906 10.8011 0.108988 11.1398 0.330163C11.4785 0.551338 11.7455 0.866344 11.9082 1.23673C12.0709 1.60711 12.1222 2.01684 12.056 2.41591C11.9897 2.81498 11.8086 3.18612 11.5349 3.48402C13.556 3.86852 15.3734 4.96192 16.6599 6.56735C15.5731 7.37901 14.6997 8.44257 14.1149 9.66652C13.6557 8.99962 13.0412 8.45435 12.3245 8.07766C11.6077 7.70097 10.8101 7.50415 10.0004 7.50415C9.19063 7.50415 8.39304 7.70097 7.67627 8.07766C6.9595 8.45435 6.34503 8.99962 5.88578 9.66652C5.30157 8.44244 4.42842 7.37882 3.34161 6.56735ZM17.5274 18.3332H2.47411C2.2531 18.3367 2.04254 18.4279 1.88876 18.5867C1.73498 18.7455 1.65057 18.9588 1.65411 19.1798C1.65765 19.4009 1.74883 19.6114 1.90761 19.7652C2.0664 19.919 2.27976 20.0034 2.50078 19.9998H17.5008C17.7218 20.0034 17.9352 19.919 18.0939 19.7652C18.2527 19.6114 18.3439 19.4009 18.3474 19.1798C18.351 18.9588 18.2666 18.7455 18.1128 18.5867C17.959 18.4279 17.7485 18.3367 17.5274 18.3332ZM17.9883 16.6665C17.9883 16.6665 20.0008 9.37652 20.0008 8.74985C20.0067 8.5841 19.9785 8.4189 19.9177 8.26455C19.857 8.11021 19.7652 7.97002 19.6479 7.85274C19.5306 7.73546 19.3904 7.6436 19.2361 7.58289C19.0817 7.52217 18.9165 7.49391 18.7508 7.49985C17.0841 7.49985 15.0008 10.7123 15.0008 12.4998C15.0008 12.7209 14.913 12.9328 14.7567 13.0891C14.6004 13.2454 14.3885 13.3332 14.1674 13.3332C13.9464 13.3332 13.7345 13.2454 13.5782 13.0891C13.4219 12.9328 13.3341 12.7209 13.3341 12.4998C13.3341 11.6158 12.9829 10.7679 12.3578 10.1428C11.7327 9.5177 10.8848 9.16652 10.0008 9.16652C9.11672 9.16652 8.26887 9.5177 7.64375 10.1428C7.01863 10.7679 6.66744 11.6158 6.66744 12.4998C6.66744 12.7209 6.57965 12.9328 6.42336 13.0891C6.26708 13.2454 6.05512 13.3332 5.83411 13.3332C5.6131 13.3332 5.40113 13.2454 5.24485 13.0891C5.08857 12.9328 5.00078 12.7209 5.00078 12.4998C5.00078 10.7123 2.91744 7.49985 1.25078 7.49985C1.08502 7.49391 0.919824 7.52217 0.765478 7.58289C0.611132 7.6436 0.470948 7.73546 0.353669 7.85274C0.236389 7.97002 0.144528 8.11021 0.0838129 8.26455C0.0230981 8.4189 -0.00516844 8.5841 0.00077578 8.74985C0.00077578 9.37652 2.01328 16.6665 2.01328 16.6665H17.9883Z" fill="#6E6E78"/>
</g>
<defs>
<clipPath id="clip0_1325_65">
<rect width="20" height="20" fill="white"/>
</clipPath>
</defs>
</svg>
