<svg width="20" height="20" viewBox="0 0 20 20" fill="none" xmlns="http://www.w3.org/2000/svg">
<g clip-path="url(#clip0_1472_9)">
<path d="M8.33333 14.167H6.1075C5.77893 14.1681 5.45343 14.1038 5.14987 13.9781C4.84632 13.8524 4.57075 13.6676 4.33917 13.4345L0.0433333 9.13867C0.0191667 9.42367 0 9.70951 0 10.0003C0.00365984 12.5064 0.94745 14.9199 2.64478 16.7637C4.34212 18.6074 6.66945 19.7473 9.16667 19.9578V15.0003C9.16667 14.7793 9.07887 14.5674 8.92259 14.4111C8.76631 14.2548 8.55435 14.167 8.33333 14.167Z" fill="#6E6E78"/>
<path d="M17.03 2.89844L15.5383 4.3901C15.1469 4.77935 14.6178 4.99853 14.0658 5.0001H12.9167C12.8062 5.0001 12.7002 5.044 12.622 5.12214C12.5439 5.20028 12.5 5.30626 12.5 5.41677V6.2501C12.5 6.80264 12.2805 7.33254 11.8898 7.72324C11.4991 8.11394 10.9692 8.33344 10.4167 8.33344C10.3062 8.33344 10.2002 8.37734 10.122 8.45548C10.0439 8.53362 10 8.6396 10 8.7501V9.16677C10 9.38779 10.0878 9.59975 10.2441 9.75603C10.4004 9.91231 10.6123 10.0001 10.8333 10.0001H13.3333C13.9964 10.0001 14.6323 10.2635 15.1011 10.7323C15.5699 11.2012 15.8333 11.8371 15.8333 12.5001V13.3018C15.8334 13.4121 15.8771 13.5179 15.955 13.5959L18.1425 15.7843C19.5215 13.8557 20.1671 11.4983 19.9632 9.13614C19.7592 6.77402 18.7192 4.56217 17.03 2.89844Z" fill="#6E6E78"/>
<path d="M14.168 13.3021V12.5004C14.168 12.2794 14.0802 12.0674 13.9239 11.9112C13.7676 11.7549 13.5556 11.6671 13.3346 11.6671H10.8346C10.1716 11.6671 9.53571 11.4037 9.06687 10.9349C8.59803 10.466 8.33464 9.83013 8.33464 9.16709V8.75042C8.33464 8.19789 8.55413 7.66798 8.94483 7.27728C9.33553 6.88658 9.86543 6.66709 10.418 6.66709C10.5285 6.66709 10.6345 6.62319 10.7126 6.54505C10.7907 6.46691 10.8346 6.36093 10.8346 6.25042V5.41709C10.8346 4.86455 11.0541 4.33465 11.4448 3.94395C11.8355 3.55325 12.3654 3.33376 12.918 3.33376H14.0671C14.1773 3.3331 14.2829 3.28945 14.3613 3.21209L15.7455 1.82792C14.4496 0.912647 12.9541 0.319568 11.3832 0.0978881C9.81219 -0.123792 8.21102 0.032317 6.71246 0.553264C5.2139 1.07421 3.86116 1.94498 2.76646 3.09333C1.67177 4.24168 0.866671 5.6345 0.417969 7.15626L5.51797 12.2563C5.59553 12.3338 5.68765 12.3954 5.78904 12.4373C5.89043 12.4792 5.9991 12.5006 6.1088 12.5004H8.33464C8.99768 12.5004 9.63356 12.7638 10.1024 13.2327C10.5712 13.7015 10.8346 14.3374 10.8346 15.0004V19.9579C13.1902 19.7641 15.4003 18.7395 17.0705 17.0671L14.778 14.7746C14.3887 14.3832 14.1695 13.8541 14.168 13.3021Z" fill="#6E6E78"/>
</g>
<defs>
<clipPath id="clip0_1472_9">
<rect width="20" height="20" fill="white"/>
</clipPath>
</defs>
</svg>
