<svg width="76" height="76" viewBox="0 0 76 76" fill="none" xmlns="http://www.w3.org/2000/svg">
<g clip-path="url(#clip0_1437_1860)">
<path d="M73.1803 2.30047C73.0021 1.20204 72.3193 0.430161 71.2654 0.148129C69.8849 -0.222964 70.6865 -0.757339 53.7201 11.9638L38.0006 23.7497L22.281 11.9638C5.16619 -0.876089 6.0865 -0.252652 4.64666 0.133286C3.949 0.326254 3.02869 1.24657 2.88025 1.88485C2.83572 2.12235 2.7615 2.38954 2.73182 2.50829C2.70213 2.61219 2.74666 2.98329 2.83572 3.30985C2.999 3.9036 34.631 72.5708 35.5217 74.2927C35.7888 74.7973 36.2045 75.3169 36.4865 75.495C37.5701 76.2223 39.0545 76.0591 39.9154 75.1239C40.2865 74.7231 44.5763 65.5497 56.7779 39.113C65.7732 19.6083 73.1654 3.47313 73.2099 3.26532C73.2545 3.0575 73.2396 2.62704 73.1803 2.30047Z" fill="#EDEAE5"/>
</g>
<defs>
<clipPath id="clip0_1437_1860">
<rect width="76" height="76" fill="white" transform="matrix(0 1 -1 0 76 0)"/>
</clipPath>
</defs>
</svg>
